<svg width="627" height="661" viewBox="0 0 627 661" fill="none" xmlns="http://www.w3.org/2000/svg">
<path d="M608.44 660.519C618.306 660.519 626.225 652.606 626.225 642.748V312.878C626.225 176.545 538.989 56.8161 409.175 15.0472C378.279 5.05897 345.955 0 313.112 0C295.717 0 278.322 1.42689 261.446 4.28066C157.335 21.7925 65.2966 94.3043 24.4051 191.462C24.0157 192.241 23.6262 193.149 23.3666 194.057C7.78888 231.804 0 271.757 0 312.878V642.748C0 652.606 7.9187 660.519 17.7845 660.519H608.44Z" fill="white"/>
<path d="M18.6932 315.472V377.347L63.9984 501.097L18.6932 623.42V645.342C18.6932 645.342 28.9485 645.342 46.8629 645.342C85.8073 645.342 156.037 578.149 238.729 578.149C296.107 578.149 361.922 645.342 417.483 645.342C523.671 645.342 609.349 645.342 609.349 645.342C609.349 621.863 609.349 598.255 609.349 574.776C609.349 553.113 609.349 531.451 609.349 509.658C609.349 484.234 589.227 465.684 589.227 440.259C589.227 396.934 583.126 354.646 581.179 311.45C580.53 298.09 607.142 276.427 604.805 263.325C604.286 260.601 603.767 257.877 603.247 255.283C592.213 201.71 566.51 153.585 530.681 114.929C496.67 78.2191 453.442 50.2002 404.631 34.5045C398.011 32.429 391.39 30.4832 384.64 28.7969C370.36 25.2946 355.691 22.8299 340.633 21.403C333.363 20.7545 325.964 20.3653 318.435 20.2356C317.007 20.2356 315.449 20.2356 314.021 20.2356C259.109 20.2356 227.954 79.5163 181.48 108.573C156.816 123.88 110.342 99.6224 91.2594 121.674C77.2394 137.759 64.7773 155.531 54.522 174.469C31.6746 216.368 18.6932 264.363 18.6932 315.472Z" fill="#FF87B2" fill-opacity="0.64"/>
<path d="M91.2593 121.674C113.198 157.865 153.051 181.993 198.486 181.993C267.807 181.993 323.887 125.955 323.887 56.6861C323.887 43.9738 322.069 31.7804 318.564 20.2356C317.136 20.2356 315.579 20.2356 314.151 20.2356C297.534 20.2356 281.308 21.5328 265.47 24.2568C250.542 26.7214 236.002 30.3535 221.853 35.0233C220.944 35.2828 220.165 35.5422 219.256 35.9314C207.313 39.9526 195.76 44.7521 184.596 50.2002C163.436 60.5776 143.704 73.2899 125.66 88.2073C125.011 88.7262 124.232 89.3748 123.583 89.8937C117.222 95.2121 111.121 100.92 105.279 106.757C100.346 111.556 95.673 116.486 91.2593 121.674Z" fill="#ABE3D6"/>
<path d="M458.893 386.946C458.893 456.215 515.103 512.253 584.294 512.253C592.862 512.253 601.3 511.344 609.478 509.788V315.472C609.478 309.505 609.348 303.667 608.959 297.83C608.699 293.55 608.31 289.269 607.92 284.988C607.141 277.724 606.103 270.46 604.935 263.325C598.184 262.158 591.434 261.639 584.424 261.639C514.973 261.639 458.893 317.677 458.893 386.946Z" fill="#ABE3D6"/>
<path d="M18.6929 377.736V623.55C26.6116 625.107 34.9197 626.015 43.3576 626.015C112.549 626.015 168.758 569.977 168.758 500.708C168.758 431.439 112.549 375.401 43.3576 375.401C34.9197 375.271 26.6116 376.179 18.6929 377.736Z" fill="#ABE3D6"/>
<path d="M538.989 326.886C573.26 326.886 601.04 354.646 601.04 388.891C601.04 423.137 573.26 450.896 538.989 450.896C504.718 450.896 476.937 423.007 476.937 388.891C476.937 354.646 504.718 326.886 538.989 326.886ZM538.989 448.691C571.962 448.691 598.833 421.839 598.833 388.891C598.833 355.943 571.962 329.092 538.989 329.092C506.016 329.092 479.144 355.943 479.144 388.891C479.144 421.839 506.016 448.691 538.989 448.691Z" fill="#490F37"/>
<path d="M270.533 39.5632C304.804 39.5632 332.584 67.3227 332.584 101.568C332.584 135.813 304.804 163.573 270.533 163.573C236.262 163.573 208.482 135.684 208.482 101.568C208.482 67.3227 236.262 39.5632 270.533 39.5632ZM270.533 161.368C303.506 161.368 330.378 134.516 330.378 101.568C330.378 68.6199 303.506 41.7684 270.533 41.7684C237.56 41.7684 210.689 68.6199 210.689 101.568C210.689 134.516 237.56 161.368 270.533 161.368Z" fill="#490F37"/>
<path d="M259.758 121.155C274.428 124.139 288.447 130.365 300.52 139.056C312.463 147.747 323.368 160.589 322.459 175.377C321.94 184.587 316.747 193.667 318.694 202.618C320.512 211.179 327.911 217.016 333.883 223.372C339.854 229.858 344.787 237.511 346.345 246.202C348.032 254.764 346.215 264.363 340.243 270.849C333.493 278.113 321.94 281.615 319.343 291.214C316.617 301.332 325.964 310.412 328.56 320.53C330.897 329.87 327.002 339.988 320.512 347.122C314.021 354.257 305.194 358.797 296.236 362.299C268.067 373.455 236.522 376.049 206.924 369.693C193.943 366.839 181.091 362.299 170.446 354.516C153.57 342.193 143.055 322.865 136.954 302.889C127.478 271.368 128.516 236.474 141.627 206.25C154.739 176.026 180.312 151.12 211.468 140.483C225.487 135.684 240.286 133.868 254.306 128.938L259.758 121.155Z" fill="#FFB255"/>
<path d="M305.843 207.418C305.843 206.51 305.972 205.472 305.972 204.564C306.492 174.081 288.707 147.489 262.744 134.647C252.489 129.588 241.065 126.734 228.863 126.604C185.634 125.956 150.195 159.812 149.546 202.229C149.416 211.699 151.623 220.26 154.09 229.34C154.868 231.545 155.777 233.621 156.816 235.696C153.7 234.918 150.585 234.529 147.469 234.788C142.666 235.048 137.993 236.864 134.358 240.107C130.723 243.479 128.516 248.149 127.607 253.078C125.66 262.677 128.257 273.444 135.526 280.059C140.978 285.118 148.637 287.324 156.037 287.064C157.724 287.064 159.412 286.805 161.1 286.416L163.306 348.939L215.362 392.394C238.079 403.42 240.546 368.656 258.071 350.366L258.331 323.255L258.46 305.873C271.052 305.095 281.697 303.408 287.539 300.425C306.751 290.826 306.622 230.118 305.843 207.418Z" fill="#FF8994"/>
<path d="M280.529 209.623C271.572 207.677 275.206 198.337 284.423 199.635C285.202 199.764 285.851 199.894 286.63 200.024C293.64 201.58 299.092 205.991 299.871 210.79C293.77 210.92 288.707 210.79 282.736 210.012C281.957 209.882 281.178 209.753 280.529 209.623Z" fill="#FFB255"/>
<path d="M228.603 210.012C237.56 208.066 233.925 198.727 224.708 200.024C223.929 200.154 223.28 200.283 222.501 200.413C215.491 201.97 210.039 206.38 209.26 211.18C215.362 211.309 220.424 211.18 226.396 210.401C227.175 210.272 227.824 210.142 228.603 210.012Z" fill="#FFB255"/>
<path d="M260.278 251.521C260.537 251.521 260.667 251.521 260.797 251.392C263.393 249.705 266.249 247.759 266.639 244.517C266.768 243.219 266.639 242.052 266.379 240.884C265.86 238.679 265.211 236.344 264.561 234.269C263.004 228.951 261.576 223.892 261.965 218.703C261.965 218.054 261.576 217.535 260.927 217.535C260.278 217.535 259.758 217.925 259.758 218.573C259.369 224.151 260.927 229.599 262.484 234.917C263.134 236.993 263.783 239.328 264.172 241.403C264.432 242.311 264.561 243.349 264.432 244.257C264.172 246.592 261.706 248.278 259.629 249.576C259.109 249.835 258.979 250.613 259.239 251.002C259.629 251.392 260.018 251.521 260.278 251.521Z" fill="#490F37"/>
<path d="M255.345 264.104C258.98 264.104 262.485 262.807 265.211 260.472C265.601 260.083 265.73 259.434 265.341 258.915C264.952 258.526 264.302 258.396 263.783 258.785C260.668 261.51 256.254 262.547 252.36 261.639C248.335 260.601 244.96 257.618 243.532 253.856C243.273 253.337 242.624 253.078 242.104 253.208C241.585 253.467 241.325 253.986 241.455 254.635C243.143 259.045 247.167 262.547 251.84 263.715C253.009 263.974 254.177 264.104 255.345 264.104Z" fill="#490F37"/>
<path d="M259.369 323.125C257.033 323.904 254.696 324.423 252.229 324.812C244.83 325.72 237.171 324.812 229.901 323.125C221.074 321.18 212.376 318.326 204.588 313.786C200.174 311.191 195.241 307.689 191.476 303.408C209.91 304.576 243.142 306.522 259.499 305.614L259.369 323.125Z" fill="#490F37"/>
<path d="M235.614 228.821C235.484 232.972 231.979 236.215 227.825 236.085C223.671 235.955 220.426 232.453 220.555 228.302C220.685 224.151 224.19 220.908 228.344 221.038C232.498 221.168 235.744 224.67 235.614 228.821Z" fill="#490F37"/>
<path d="M292.861 228.561C292.732 232.712 289.227 235.955 285.073 235.826C280.919 235.696 277.673 232.194 277.803 228.043C277.933 223.892 281.438 220.649 285.592 220.778C289.746 220.908 292.991 224.41 292.861 228.561Z" fill="#490F37"/>
<g opacity="0.53">
<g opacity="0.24">
<path d="M228.343 264.623C228.083 279.93 215.491 291.993 200.303 291.864C184.985 291.604 172.912 279.022 173.042 263.845C173.302 248.538 185.894 236.474 201.082 236.604C216.4 236.734 228.603 249.316 228.343 264.623Z" fill="#490F37"/>
</g>
<g opacity="0.24">
<path d="M305.713 238.29C304.934 257.877 302.338 280.059 295.328 292.252C283.774 288.75 275.466 277.984 275.596 265.401C275.856 250.224 288.448 238.031 303.636 238.16C304.415 238.16 305.064 238.16 305.713 238.29Z" fill="#490F37"/>
</g>
</g>
<path d="M159.412 270.849C158.892 270.849 158.503 270.59 158.373 270.071C156.945 266.439 153.7 263.455 149.546 262.158C145.651 260.861 141.108 261.38 137.603 263.585C137.084 263.974 136.305 263.715 136.045 263.196C135.656 262.677 135.915 261.899 136.435 261.639C140.589 259.045 145.781 258.526 150.325 259.953C153.181 260.861 155.647 262.547 157.594 264.493C156.556 259.434 154.738 254.764 152.142 250.873C148.378 245.036 142.925 240.755 136.824 238.68C136.175 238.42 135.915 237.771 136.045 237.253C136.305 236.604 136.954 236.345 137.473 236.474C144.094 238.68 149.935 243.22 153.96 249.576C157.594 255.154 159.931 262.029 160.58 269.552C160.58 270.071 160.191 270.59 159.671 270.72C159.542 270.72 159.542 270.849 159.412 270.849Z" fill="#490F37"/>
<path d="M46.4734 645.342H143.315L235.873 610.967L320.382 645.342C319.603 636.911 318.435 624.977 317.136 610.837C316.747 607.335 316.487 603.703 316.098 599.941C312.593 562.712 307.79 513.679 302.987 469.576C302.727 467.241 302.467 464.776 302.208 462.441C297.275 417.3 292.342 378.644 288.967 364.894C288.577 363.078 288.058 361.651 287.669 360.743C286.89 358.927 285.981 357.241 284.943 355.684C276.764 343.231 262.874 340.118 258.201 339.34C257.162 339.21 256.643 339.08 256.643 339.08C256.643 339.08 250.542 362.559 230.42 366.061C216.92 368.396 188.62 352.052 171.485 341.156C168.11 339.08 165.254 337.135 163.047 335.708C159.542 333.373 157.465 331.816 157.465 331.816C157.465 331.816 154.739 331.686 150.195 331.946C135.137 332.724 100.087 337.005 80.4848 359.186C74.3836 366.191 69.5804 373.844 65.9456 381.498C65.686 382.017 65.4263 382.535 65.1667 383.054C54.2623 406.663 53.4834 429.752 53.4834 429.752L46.4734 645.342Z" fill="#FFE4D2"/>
<path d="M262.355 121.156C265.341 140.354 255.735 160.849 238.988 170.837C233.796 173.951 227.954 176.026 222.762 179.269C217.569 182.512 212.896 187.311 211.857 193.278C210.819 199.245 213.415 205.212 213.804 211.179C214.713 222.076 207.833 233.231 197.578 237.252C189.919 240.366 179.923 240.236 175.25 247.111C171.225 252.948 173.562 261.12 177.846 266.698C182.13 272.276 188.101 276.297 192.904 281.616C200.304 289.918 204.068 301.462 202.381 312.359C200.823 323.255 193.553 333.503 183.558 338.043C175.509 341.804 166.292 341.934 157.465 341.804C136.046 341.545 113.458 340.248 94.6349 350.366C77.6292 359.446 66.3353 376.828 60.1042 394.988C47.6421 380.72 36.8675 363.986 39.983 345.307C42.4495 329.87 54.003 317.288 67.1142 308.597C73.3453 304.446 80.6149 299.906 81.264 292.512C81.9131 284.729 74.5137 278.892 70.6192 272.146C65.6863 263.715 66.0757 252.819 70.1 243.998C74.1242 235.047 81.5236 228.043 89.702 222.724C98.2697 217.276 108.265 213.125 113.977 204.694C123.843 190.165 116.963 169.54 124.362 153.585C130.983 139.316 147.08 132.311 162.268 128.16C194.332 119.469 229.512 116.486 262.355 121.156Z" fill="#FFB255"/>
<path d="M285.202 355.425C285.202 355.425 297.404 374.493 310.645 424.564C323.886 474.505 362.182 610.838 362.182 610.838L230.68 611.357L285.202 355.425Z" fill="#FFE4D2"/>
<path d="M330.767 606.946C331.416 606.946 331.805 606.427 331.805 605.908C331.805 605.26 330.767 546.757 326.353 524.316C321.939 501.875 281.437 417.429 279.62 413.797C279.36 413.279 278.711 413.019 278.192 413.279C277.673 413.538 277.413 414.187 277.673 414.705C278.062 415.613 319.862 502.524 324.146 524.705C328.43 546.887 329.469 605.26 329.469 605.908C329.728 606.427 330.118 606.946 330.767 606.946Z" fill="#490F37"/>
<path d="M573.26 583.078L596.107 376.439L362.83 389.67L331.286 610.189L573.26 583.078Z" fill="#490F37"/>
<path d="M470.129 520.379C458.254 516.559 453.204 499.255 458.85 481.729C464.496 464.203 478.699 453.092 490.573 456.911C502.448 460.731 507.498 478.035 501.852 495.561C496.207 513.087 482.004 524.198 470.129 520.379Z" fill="#FFE4D2"/>
<path d="M138.512 635.613C138.512 635.613 138.641 636.003 139.031 636.651C139.81 638.208 141.368 641.321 143.574 645.342H413.848C462.658 629.776 501.213 617.323 504.588 613.951C506.146 612.394 509.911 602.276 514.065 589.694C521.334 567.382 529.642 537.547 528.214 535.212C526.657 532.618 522.503 534.175 520.166 535.472C519.127 535.991 518.478 536.38 518.478 536.38C518.478 536.38 521.464 523.927 516.661 521.852C516.531 521.852 516.531 521.722 516.401 521.722C514.065 520.814 511.728 522.76 509.911 525.094C509.002 526.262 508.223 527.559 507.574 528.727C506.925 530.024 506.535 530.932 506.535 530.932C506.535 530.932 506.665 529.245 506.535 527.3C506.276 524.057 505.107 520.036 500.824 520.425C500.304 520.425 499.785 520.554 499.136 520.814C498.747 520.944 498.357 521.203 497.968 521.462C497.968 521.462 497.838 521.462 497.838 521.592C488.361 529.375 469.019 588.396 469.019 588.396H468.63L438.902 591.12C438.902 591.12 452.273 537.807 444.614 541.179C436.955 544.552 403.593 593.196 397.232 594.363C395.284 594.753 379.447 595.92 358.547 597.347C350.628 597.866 341.931 598.514 333.103 599.033C332.714 599.033 332.324 599.033 331.935 599.163C331.156 599.163 330.507 599.293 329.728 599.293C325.314 599.552 320.901 599.941 316.357 600.201C293.38 601.757 270.792 603.184 257.292 604.092C252.618 604.352 248.984 604.611 246.777 604.741H246.647C245.089 604.87 244.181 604.87 244.181 604.87L231.459 608.632L209.001 615.248L138.512 635.613Z" fill="#FF8994"/>
<path d="M505.627 589.304C506.146 589.304 506.535 588.915 506.665 588.526C506.795 588.137 517.18 545.46 519.387 537.547C521.724 529.115 520.685 521.203 516.791 519.516C515.233 518.738 513.545 518.868 512.117 519.516C507.574 521.722 505.497 529.764 505.367 530.153C505.237 530.672 505.627 531.321 506.146 531.45C506.665 531.58 507.314 531.191 507.444 530.672C507.963 528.597 510.04 522.889 513.026 521.462C513.935 521.073 514.843 521.073 515.882 521.462C518.348 522.5 519.517 529.115 517.18 537.028C514.973 544.941 504.458 587.618 504.458 588.007C504.328 588.526 504.718 589.174 505.237 589.304C505.497 589.304 505.497 589.304 505.627 589.304Z" fill="#490F37"/>
<path d="M470.058 590.083C470.058 590.083 478.366 566.604 482.26 555.318L482.65 554.281C485.895 544.811 494.593 519.646 500.045 520.165C505.367 520.814 505.497 527.17 505.497 527.429L492.775 587.488C492.646 588.007 493.035 588.656 493.554 588.785C494.203 588.915 494.723 588.526 494.852 588.007L507.574 527.689C507.574 524.446 506.016 518.738 500.305 518.09C500.175 518.09 500.045 518.09 499.915 518.09C493.554 518.09 486.544 536.38 480.573 553.632L480.183 554.67C476.289 565.955 467.981 589.434 467.981 589.434L470.058 590.083Z" fill="#490F37"/>
<path d="M124.232 640.802C124.361 640.802 124.361 640.802 124.491 640.802L260.407 603.055C260.667 602.925 260.926 602.795 261.056 602.536C261.186 602.276 261.186 601.887 261.056 601.628L191.346 426.121C191.086 425.602 190.437 425.342 189.918 425.472C189.398 425.731 189.139 426.38 189.269 426.899L258.46 601.239L124.621 638.338L76.4599 520.165C76.2002 519.647 75.5512 519.387 75.0319 519.517C74.5126 519.776 74.253 520.425 74.3828 520.944L122.933 640.024C123.453 640.543 123.842 640.802 124.232 640.802Z" fill="#490F37"/>
<path d="M90.8693 559.859C91.129 559.859 91.3886 559.729 91.6482 559.599C92.0377 559.21 92.1675 558.562 91.6482 558.043L70.6183 535.472C70.2288 535.083 69.5798 534.953 69.0605 535.472C68.6711 535.861 68.5412 536.51 69.0605 537.029L90.0905 559.47C90.3501 559.729 90.6097 559.859 90.8693 559.859Z" fill="#490F37"/>
</svg>
