<svg width="47" height="47" viewBox="0 0 47 47" fill="none" xmlns="http://www.w3.org/2000/svg">
<path d="M43.0833 0H3.91667C2.8779 0 1.88168 0.412647 1.14716 1.14716C0.412647 1.88168 0 2.8779 0 3.91667V43.0833C0 44.1221 0.412647 45.1183 1.14716 45.8528C1.88168 46.5874 2.8779 47 3.91667 47H43.0833C44.1221 47 45.1183 46.5874 45.8528 45.8528C46.5874 45.1183 47 44.1221 47 43.0833V3.91667C47 2.8779 46.5874 1.88168 45.8528 1.14716C45.1183 0.412647 44.1221 0 43.0833 0ZM37.2083 25.4583H25.4583V37.2083C25.4583 37.7277 25.252 38.2258 24.8848 38.5931C24.5175 38.9603 24.0194 39.1667 23.5 39.1667C22.9806 39.1667 22.4825 38.9603 22.1152 38.5931C21.748 38.2258 21.5417 37.7277 21.5417 37.2083V25.4583H9.79167C9.27228 25.4583 8.77418 25.252 8.40692 24.8848C8.03966 24.5175 7.83333 24.0194 7.83333 23.5C7.83333 22.9806 8.03966 22.4825 8.40692 22.1152C8.77418 21.748 9.27228 21.5417 9.79167 21.5417H21.5417V9.79167C21.5417 9.27228 21.748 8.77418 22.1152 8.40692C22.4825 8.03966 22.9806 7.83333 23.5 7.83333C24.0194 7.83333 24.5175 8.03966 24.8848 8.40692C25.252 8.77418 25.4583 9.27228 25.4583 9.79167V21.5417H37.2083C37.7277 21.5417 38.2258 21.748 38.5931 22.1152C38.9603 22.4825 39.1667 22.9806 39.1667 23.5C39.1667 24.0194 38.9603 24.5175 38.5931 24.8848C38.2258 25.252 37.7277 25.4583 37.2083 25.4583Z" fill="#D33434"/>
</svg>
