<svg width="636" height="671" viewBox="0 0 636 671" fill="none" xmlns="http://www.w3.org/2000/svg">
<g clip-path="url(#clip0_4_234)">
<path d="M17.8934 671C7.84798 671 0 662.848 0 653.128V317.628C0 306.026 0.627838 294.111 1.88351 282.823C3.45311 267.773 6.27838 252.409 10.3593 237.358C46.7739 97.5145 173.283 0 318 0C403.072 0 482.807 32.9229 542.766 93.1248C577.297 127.615 603.98 170.258 619.362 216.35C630.349 248.96 636 283.137 636 317.628V653.128C636 663.161 627.838 671 618.107 671H17.8934Z" fill="url(#paint0_linear_4_234)"/>
<path d="M619.362 317.628V653.128H19.4631V317.628C19.4631 306.34 20.091 295.365 21.3467 284.705C22.9162 269.968 25.7415 255.858 29.1946 241.748C62.784 112.879 179.876 17.8724 319.256 17.8724C402.13 17.8724 477.157 51.4224 531.465 105.667C563.799 137.963 588.912 177.784 603.667 221.994C613.712 252.095 619.362 284.078 619.362 317.628Z" fill="url(#paint1_linear_4_234)"/>
<path d="M596.76 371.872V619.891C596.76 627.103 595.191 634.001 592.052 639.958C591.11 642.153 589.854 644.348 588.284 646.229C587.029 648.111 585.773 649.678 584.204 651.246C583.89 651.873 583.262 652.187 582.634 652.814H19.4631V317.314C19.4631 306.026 20.091 295.052 21.3467 284.391C47.4019 280.001 80.9913 275.612 118.662 271.536C148.484 268.4 180.504 265.265 213.151 262.756C215.349 262.756 217.232 262.443 219.43 262.129C221.627 262.129 223.824 261.815 225.708 261.502C241.718 260.248 257.414 259.307 273.424 258.366C280.016 258.053 286.608 257.739 292.887 257.112C309.524 256.172 325.848 255.544 341.858 254.917C362.891 253.977 382.981 253.663 401.503 253.663C431.325 253.35 457.38 254.29 476.529 256.172C503.526 258.993 528.954 262.443 551.242 266.519C569.763 269.654 584.517 283.451 588.912 301.95C593.935 324.526 596.76 348.042 596.76 371.872Z" fill="#256ADD"/>
<path d="M619.362 394.761V640.586C610.259 640.586 601.155 640.586 592.365 640.272C544.022 638.704 495.992 633.687 448.277 625.535C445.137 624.908 441.684 624.594 438.231 623.967C419.71 621.145 397.108 617.383 389.574 600.451C387.062 594.807 386.435 589.79 387.062 585.087C387.376 582.892 388.004 580.697 388.946 578.502C390.515 575.053 392.713 571.604 395.538 567.842C405.27 554.986 413.746 544.952 417.826 528.961C420.338 519.555 422.221 509.835 424.105 500.115C427.244 484.437 429.755 468.759 432.895 453.082C434.15 447.124 435.092 441.167 436.348 435.523C440.743 412.947 445.137 390.372 449.532 367.796C450.788 361.838 452.985 354.627 458.636 353.059C467.426 350.55 473.076 361.525 478.413 368.736C490.342 385.355 513.258 388.49 533.663 388.804C554.695 389.117 576.042 388.177 596.76 390.685C604.294 391.312 611.828 392.566 619.362 394.761Z" fill="#FFB3B1"/>
<path d="M289.747 83.4047C307.327 84.6589 324.592 89.6757 339.66 98.1416C346.881 102.218 353.787 107.235 356.298 114.76C358.182 121.344 356.612 128.556 360.065 134.514C363.204 140.157 370.425 142.666 374.819 147.369C381.726 154.581 381.412 165.555 378.586 174.962C375.761 184.368 370.738 192.834 369.169 202.554C368.541 206.63 368.541 211.334 370.738 215.096C373.878 219.8 379.842 221.681 384.551 224.816C396.166 231.714 402.758 245.511 400.561 258.053C399.305 264.951 395.852 271.222 393.655 277.493C391.143 284.078 389.888 291.289 393.027 297.56C398.363 308.535 414.059 311.043 425.046 317.628C437.289 324.839 444.509 337.381 446.707 350.55C448.904 363.72 446.079 376.889 441.684 389.744H299.479C284.411 329.856 271.854 271.222 268.715 209.766C266.831 175.275 267.145 139.844 276.249 106.294C278.76 97.2009 282.841 89.6757 289.747 83.4047Z" fill="#451C49"/>
<path d="M440.742 653.128H52.1107C51.7967 649.365 51.4828 644.348 51.1689 638.391C51.1689 637.764 51.1689 637.136 51.1689 636.509V635.882C48.0297 584.773 42.3792 466.565 54.622 396.015C57.4473 380.024 61.2143 366.542 65.9231 356.822C68.1205 352.432 70.318 348.983 72.8293 346.161C111.755 304.145 200.594 282.823 213.151 279.688C214.093 279.374 214.721 279.374 214.721 279.374L278.446 293.171L292.887 296.306C292.887 296.306 363.832 311.67 391.771 353.372C396.166 360.271 400.561 372.813 404.642 389.117C410.292 411.693 415.629 441.794 420.338 473.463C421.593 481.929 422.849 490.708 424.105 499.487C430.383 545.579 435.092 592.299 437.917 623.34C438.859 632.433 439.487 639.958 440.115 645.916C440.115 647.797 440.429 649.365 440.429 650.933C440.429 651.873 440.742 652.5 440.742 653.128Z" fill="#FFEAE8"/>
<path d="M161.04 462.488C159.785 456.844 161.668 450.887 165.435 447.124C169.202 443.362 174.853 441.794 179.562 443.675C178.934 438.031 178.934 432.074 181.131 426.743C183.329 421.413 188.351 417.337 193.374 417.65C197.141 417.65 200.594 419.845 203.42 422.354C204.361 415.142 210.64 408.557 216.918 408.244C223.196 407.93 229.475 412.947 231.672 419.532C233.556 411.066 239.834 403.541 247.054 400.405C249.566 399.464 252.077 398.837 254.588 399.151C259.611 399.778 263.692 403.541 266.203 408.558C268.715 413.261 269.97 418.905 270.912 424.235C272.796 421.1 274.679 418.278 277.818 416.396C280.958 414.829 284.725 414.201 287.864 415.769C291.003 417.023 293.2 419.532 295.084 422.667C296.654 425.803 297.595 429.252 298.223 432.701C301.048 429.565 304.815 427.684 308.582 426.43C311.408 425.489 314.547 425.176 317.058 426.743C318.628 427.371 319.884 428.625 320.825 430.193C324.592 434.896 326.79 441.794 326.476 448.065C329.929 445.557 333.696 444.929 337.777 444.929C341.858 444.929 345.939 447.124 348.136 450.573C350.962 454.963 350.962 460.607 350.334 465.937L161.04 462.488Z" fill="#FFF387"/>
<path d="M353.473 459.98L331.498 549.342L313.605 622.086L309.21 639.645H189.293L157.273 464.683L160.727 461.861L164.18 459.039C168.575 455.59 174.853 454.65 179.876 457.472L184.584 459.98L185.526 460.293L189.607 458.099C195.885 454.963 203.42 454.963 209.384 458.099L212.209 459.666L213.465 460.293L217.546 458.099C223.824 454.963 231.358 454.963 237.323 458.099L241.404 460.293L242.659 459.666L245.171 458.412C251.449 455.277 258.983 455.277 264.948 458.412L268.401 460.293L269.029 460.607L273.11 458.412C279.388 455.277 286.922 455.277 292.886 458.412L296.653 460.293H296.967L301.048 458.099C307.327 454.963 314.861 454.963 320.825 458.099L324.906 460.293L328.987 458.099C335.266 454.963 342.8 454.963 348.764 458.099L349.706 458.726L353.473 459.98Z" fill="#FFEAE8"/>
<path d="M353.473 459.98L331.499 549.342L313.605 622.086L309.21 639.645H295.398L298.223 622.086L308.583 560.003L309.524 554.045L311.094 545.266L314.861 522.063L315.803 516.106L324.279 465.624L325.22 459.98L329.301 457.785C335.58 454.65 343.114 454.65 349.078 457.785L350.02 458.412L353.473 459.98Z" fill="#FF6666"/>
<path d="M297.281 459.666L296.967 464.997L294.142 503.564L293.828 507.326L291.317 541.817L290.061 558.122V559.376L289.747 562.198L289.433 565.96L285.666 621.772L284.411 639.331H268.087V621.459V607.349V606.408V593.553V587.909V574.113V573.799V560.63V558.122V555.927V549.342V539.622V513.911V509.207L268.401 464.997V459.98L269.029 460.293L273.11 458.099C279.388 454.963 286.922 454.963 292.887 458.099L297.281 459.666Z" fill="#FF6666"/>
<path d="M242.973 459.353V464.37L241.404 556.554L241.09 568.782V573.799L240.776 585.087V593.866L240.462 603.9L240.148 614.874V620.205L239.834 639.645H223.196L220.999 601.705L220.685 595.434L219.743 581.951L219.429 574.74L218.802 562.825L218.488 556.554L212.837 463.429L212.523 459.039L213.779 459.666L217.86 457.472C224.138 454.336 231.672 454.336 237.637 457.472L241.718 459.666L242.973 459.353Z" fill="#FF6666"/>
<path d="M204.047 639.645H189.607L157.587 464.683L161.041 461.861L164.494 459.039C168.888 455.59 175.167 454.65 180.19 457.472L184.898 459.98L185.212 463.429L204.047 639.645Z" fill="#FF6666"/>
<g opacity="0.27">
<path d="M242.973 459.353V464.37L242.345 556.554V569.096V573.799V585.401V593.866V604.214V614.247V620.205V639.331H189.293L157.273 464.37L160.727 461.548L164.18 458.726C168.575 455.277 174.853 454.336 179.876 457.158L184.584 459.666L185.526 459.98L189.607 457.785C195.885 454.65 203.42 454.65 209.384 457.785L212.209 459.353L213.465 459.98L217.546 457.785C223.824 454.65 231.358 454.65 237.323 457.785L241.404 459.98L242.973 459.353Z" fill="#451C49"/>
</g>
<path d="M285.039 631.493C281.899 631.806 279.702 632.12 279.702 632.12L280.644 636.509C280.644 636.509 282.213 636.509 284.725 636.196C287.55 635.882 291.631 635.882 296.34 635.569C300.735 635.255 305.757 635.255 310.466 635.255C321.767 635.255 331.813 635.882 331.499 638.704C331.185 641.526 321.139 644.035 309.838 646.229C296.34 648.738 281.586 650.306 281.586 650.306C281.586 650.306 288.806 651.56 296.654 653.441H203.734L204.675 639.958L207.815 588.85C207.815 588.85 212.837 588.222 220.685 586.968C220.999 586.968 221.627 586.968 221.941 586.655C222.255 586.655 222.883 586.655 223.197 586.341C228.533 585.714 234.812 584.773 241.404 583.833C242.032 583.833 242.346 583.833 242.66 583.519C251.449 582.265 260.553 581.324 268.715 580.384C276.877 579.443 284.097 578.816 289.12 578.816C293.514 578.816 296.026 579.129 296.34 580.07C296.654 581.638 293.514 584.46 288.806 587.282C282.841 591.044 274.993 595.434 269.029 598.57C263.692 601.392 259.925 603.273 259.925 603.273C259.925 603.273 263.378 602.959 269.029 602.646C274.051 602.332 280.644 602.019 287.864 602.019C292.573 601.705 297.595 601.705 302.618 601.705C308.583 601.705 314.547 601.705 319.57 601.705C328.987 602.019 335.894 602.959 336.207 604.527C336.521 606.722 327.732 609.544 316.745 612.052C311.408 613.307 305.757 614.561 300.107 615.501C295.084 616.442 290.375 617.383 286.608 618.01C281.272 618.951 277.505 619.578 276.563 619.578C277.505 619.578 281.272 619.264 286.608 618.95C290.375 618.637 295.084 618.323 299.793 618.323C304.816 618.01 310.466 618.01 315.489 618.01C327.104 618.01 336.835 618.637 337.149 620.832C337.463 623.654 325.848 626.162 312.977 628.357C307.955 629.298 302.618 629.925 297.909 630.552C292.573 630.552 288.178 631.179 285.039 631.493Z" fill="#FF8994"/>
<path d="M223.511 575.053L221.627 586.028L220.685 592.299L213.151 639.331L210.954 652.814H131.532C104.535 648.111 74.7129 642.153 50.855 635.882C38.2983 632.747 27.625 629.298 19.4631 625.849V464.683C26.0554 432.387 34.8452 407.93 43.0071 390.685C54.936 365.915 65.2953 355.254 65.2953 355.254L65.6092 355.881L75.9686 395.388L108.93 521.75L110.5 527.393L113.953 539.936L114.267 540.876L175.481 559.689L196.827 566.274L220.057 573.486L223.511 575.053Z" fill="#FFEAE8"/>
<path d="M213.151 224.503V295.679C213.151 318.882 228.219 337.381 247.054 337.381H258.983C277.818 337.381 292.887 318.568 292.887 295.679V241.435L213.151 224.503Z" fill="#FF8994"/>
<path d="M221.627 264.324C221.627 264.324 239.206 284.705 267.145 286.586C279.074 287.527 287.236 286.586 292.887 285.332V270.595L221.627 264.324Z" fill="#451C49"/>
<path d="M351.589 167.436C351.589 169.318 351.589 170.886 351.275 172.453C351.275 174.648 350.962 176.529 350.648 178.411L343.741 246.765C342.172 260.248 330.871 275.298 317.372 274.671L292.887 273.417L234.811 270.595C231.672 270.595 228.847 269.654 226.336 268.4C218.802 264.324 213.779 254.917 213.151 245.824L212.837 243.002L210.954 219.8L208.128 185.936C208.128 185.309 207.814 184.682 207.814 184.368C206.559 179.038 205.931 173.08 205.931 167.436C205.931 125.107 238.579 90.9299 278.76 90.9299C285.666 90.9299 292.259 91.8706 298.537 93.7519C299.479 94.0654 300.107 94.379 301.048 94.6926C304.188 95.6332 307.013 96.8874 310.152 98.4552C332.44 109.429 348.45 132.319 351.275 159.284C351.275 161.793 351.589 164.615 351.589 167.436Z" fill="#FF8994"/>
<path d="M282.213 192.207C282.841 196.283 280.33 200.359 276.249 200.987C272.168 201.614 268.087 199.105 267.459 195.029C266.831 190.953 269.343 186.877 273.424 186.25C277.505 185.309 281.585 188.131 282.213 192.207Z" fill="#451C49"/>
<path d="M334.952 194.402C335.893 198.478 333.068 202.554 328.987 203.495C324.906 204.436 320.825 201.614 319.883 197.537C318.942 193.461 321.767 189.385 325.848 188.444C329.929 187.817 334.01 190.326 334.952 194.402Z" fill="#451C49"/>
<path d="M302.304 233.909C301.362 233.909 300.421 233.909 299.479 233.596C295.084 232.969 291.003 230.774 288.178 227.325C287.864 226.698 287.864 226.071 288.178 225.757C288.806 225.444 289.433 225.444 289.747 225.757C292.259 228.579 296.026 230.46 299.793 231.087C303.56 231.715 307.641 230.774 311.094 228.893C311.722 228.579 312.35 228.893 312.663 229.206C312.977 229.833 312.663 230.46 312.35 230.774C309.21 233.282 305.757 233.909 302.304 233.909Z" fill="#451C49"/>
<path d="M304.502 221.994C303.874 221.994 303.56 221.681 303.246 221.054C303.246 220.427 303.56 219.8 304.188 219.486C306.385 218.859 307.955 216.664 308.269 214.469C308.896 212.274 308.582 210.079 308.269 207.571V206.944C307.641 200.359 307.641 193.461 307.955 186.877C307.955 186.25 308.582 185.622 309.21 185.936C309.838 185.936 310.466 186.563 310.152 187.19C309.524 193.775 309.524 200.359 310.466 206.944V207.571C310.78 210.079 311.094 212.901 310.466 215.41C310.152 218.859 307.641 221.367 304.502 221.994Z" fill="#451C49"/>
<path d="M262.436 176.529C263.378 173.394 266.203 171.199 269.343 169.945C270.912 169.318 272.482 169.318 274.051 169.318C275.621 169.631 277.19 170.258 278.446 171.513C279.074 172.14 279.074 173.08 278.446 173.708C278.446 173.708 278.132 173.708 278.132 174.021C276.563 174.648 275.621 175.275 274.365 175.589C273.423 175.902 272.168 176.216 271.226 176.529C269.029 176.843 267.145 177.47 264.32 178.411C263.692 178.724 262.75 178.097 262.75 177.47C262.436 177.157 262.436 176.843 262.436 176.529Z" fill="#451C49"/>
<path d="M338.719 178.411C335.893 177.784 334.01 177.157 331.812 176.53C330.871 176.216 329.615 176.216 328.673 175.589C327.418 175.275 326.476 174.962 324.906 174.021C324.278 173.708 323.965 172.767 324.278 172.14C324.278 172.14 324.278 171.826 324.592 171.826C325.848 170.572 327.418 169.945 328.987 169.631C330.557 169.318 332.44 169.631 333.696 170.258C336.835 171.199 339.66 173.708 340.602 176.843C340.916 177.47 340.288 178.411 339.66 178.411C339.347 178.411 339.033 178.411 338.719 178.411Z" fill="#451C49"/>
<path d="M351.275 171.199C348.136 169.945 344.997 169.318 341.544 169.318C339.032 169.318 336.521 169.631 334.324 170.258C331.184 171.199 328.359 172.453 325.848 174.648C320.511 178.724 316.744 184.682 315.802 191.58C315.489 192.521 315.489 193.775 315.489 195.029C315.489 195.343 315.489 195.656 315.489 195.656C315.489 210.079 327.417 221.994 341.858 221.994C343.427 221.994 345.311 221.994 346.88 221.681C359.123 219.486 368.227 208.512 368.227 195.97C367.913 184.682 361.007 174.962 351.275 171.199ZM346.88 217.918C345.311 218.232 343.427 218.545 341.544 218.545C328.987 218.545 318.628 208.198 318.628 195.656C318.628 187.504 323.023 179.979 329.615 176.216C332.126 174.648 334.951 173.394 338.091 173.08C339.346 172.767 340.288 172.767 341.544 172.767C344.997 172.767 348.136 173.394 350.961 174.962C358.809 178.724 364.46 186.563 364.46 195.97C364.46 206.317 356.926 215.723 346.88 217.918Z" fill="#FFC573"/>
<path d="M302.618 191.894C300.734 179.038 289.747 169.318 276.563 169.318C275.307 169.318 274.051 169.318 272.796 169.631C271.54 169.945 269.97 170.258 268.715 170.572H268.401C260.553 173.394 254.274 179.665 251.763 187.504C251.449 188.444 251.135 189.699 251.135 190.953C250.821 192.521 250.821 193.775 250.821 195.343C250.821 207.258 258.983 217.605 269.97 220.74C272.168 221.367 274.679 221.681 277.19 221.681C291.631 221.681 303.56 209.766 303.56 195.343V195.029C302.932 194.088 302.618 193.148 302.618 191.894ZM276.563 218.545C274.051 218.545 271.54 218.232 269.343 217.291C260.239 214.156 253.647 205.69 253.647 195.656C253.647 188.131 257.1 181.546 262.75 177.47C264.32 176.216 266.203 175.275 268.087 174.335C270.912 173.394 273.737 172.767 276.877 172.767C277.818 172.767 278.446 172.767 279.388 172.767C290.689 174.021 299.793 183.741 299.793 195.656C299.479 208.198 289.119 218.545 276.563 218.545Z" fill="#FFC573"/>
<path d="M301.99 195.656L300.734 192.521C305.757 190.639 311.722 190.326 316.744 191.894L315.802 195.029C311.722 193.775 306.699 193.775 301.99 195.656Z" fill="#FFC573"/>
<path d="M252.077 187.817H220.685V191.266H252.077V187.817Z" fill="#FFC573"/>
<path d="M303.874 104.099C304.188 111.624 299.793 119.15 293.2 122.599C290.061 124.166 286.608 124.793 283.783 126.675C278.446 130.124 276.249 136.708 275.307 142.979C274.365 149.25 274.051 155.835 270.598 161.165C267.145 166.809 261.181 170.572 254.902 172.453C248.624 174.021 241.718 174.021 235.125 173.394C227.591 172.767 218.488 172.453 214.721 178.724C211.581 183.741 213.779 190.012 215.035 195.656C216.604 203.495 215.976 212.274 211.581 218.859C211.268 219.172 211.268 219.486 210.954 219.8L208.128 185.936C208.128 185.309 207.814 184.682 207.814 184.368C206.559 179.038 205.931 173.08 205.931 167.436C205.931 125.107 238.579 90.9299 278.76 90.9299C286.608 90.9299 294.142 92.1841 301.048 94.6926C302.618 97.201 303.874 100.336 303.874 104.099Z" fill="#451C49"/>
<path d="M351.903 158.971C346.567 156.149 339.66 154.894 336.207 149.878C331.185 142.979 336.207 132.319 332.44 124.793C328.673 117.268 319.256 115.7 312.036 111.624C307.013 108.802 298.223 99.7094 298.223 92.4977C299.165 92.8112 299.793 93.1248 300.735 93.4383C303.874 94.379 307.013 95.6332 309.838 97.201C332.754 108.489 349.078 131.692 351.903 158.971Z" fill="#451C49"/>
<path d="M292.887 83.4047C271.854 82.1505 250.194 83.0911 230.731 90.6164C211.268 98.1416 193.688 113.819 188.351 134.2C185.84 144.547 185.526 156.776 177.364 163.674C173.911 166.496 169.83 167.75 165.749 169.631C152.565 174.962 140.322 183.114 131.846 194.402C123.37 205.69 118.661 220.427 120.859 234.223C122.428 245.511 128.079 257.739 122.115 267.459C116.464 276.866 103.593 278.12 92.9201 280.629C80.9912 283.45 69.3762 289.722 61.2143 299.128C53.0524 308.535 48.3436 321.077 49.5993 333.305C50.541 342.085 54.308 350.864 52.4245 359.33C51.1689 365.914 46.774 371.245 44.2626 377.202C41.4374 383.16 40.8095 390.999 45.8322 395.702L223.196 396.643C224.452 390.372 225.394 383.787 222.883 378.143C219.743 370.931 211.895 365.914 211.895 358.076C211.895 351.491 217.86 346.474 222.883 341.771C227.591 337.381 231.986 332.051 234.184 326.093C236.381 319.822 236.067 312.611 232.3 307.28C228.533 302.264 222.255 299.442 218.174 294.738C214.721 290.662 213.465 285.018 214.407 279.688C216.918 266.519 232.928 259.307 235.439 246.138C238.265 231.087 222.569 216.037 228.533 201.927C232.3 193.461 243.287 189.699 247.054 180.919C252.077 169.945 243.287 157.403 245.171 145.488C246.426 137.336 252.705 130.751 257.1 123.853C261.495 116.641 263.692 106.607 257.728 100.964C273.424 96.8874 288.806 95.9467 304.815 98.7687C302.304 93.1248 297.595 87.4809 292.887 83.4047Z" fill="#451C49"/>
<path d="M50.855 635.882C75.0268 642.153 106.105 648.111 136.555 653.128H122.742C98.2568 648.738 72.2015 643.721 50.855 638.391C38.2982 635.255 27.3111 631.806 19.1492 628.671V626.162C27.3111 629.298 37.9843 632.433 50.855 635.882Z" fill="#451C49"/>
<path d="M224.452 575.367L222.883 586.028L220.999 598.256L214.407 639.645L212.209 653.128H209.698L211.895 639.645L220.371 587.282V586.655L221.941 576.307L219.429 575.68L196.199 568.782L175.167 562.511L106.419 541.817C105.791 541.817 105.477 541.19 105.477 540.563L108.302 523.004L125.254 423.921C125.254 423.294 125.882 422.981 126.509 422.981C127.137 422.981 127.451 423.608 127.451 424.235L109.558 528.334L107.674 539.308L113.011 540.876L174.225 559.376L195.572 565.96L218.802 572.858L223.196 574.113C224.452 574.113 224.766 574.74 224.452 575.367Z" fill="#451C49"/>
<path d="M619.363 434.896V651.56H584.204L440.429 651.246L372.308 650.933H367.286L368.541 646.23V645.916L387.063 584.773L388.946 578.189L420.338 473.776L431.953 434.896H619.363Z" fill="#451C49"/>
<path d="M546.219 564.706C560.609 564.706 572.275 553.054 572.275 538.681C572.275 524.308 560.609 512.657 546.219 512.657C531.829 512.657 520.164 524.308 520.164 538.681C520.164 553.054 531.829 564.706 546.219 564.706Z" fill="#FFEAE8"/>
<path d="M619.362 646.543V653.128H254.589L242.032 645.916H309.838H310.152H368.227H368.541L440.115 646.229L588.598 646.543H619.362Z" fill="#451C49"/>
<path d="M254.588 653.128L242.032 645.916H309.838H310.152H368.227L368.541 646.229L369.483 646.543L372.308 650.933L373.564 653.128H254.588Z" fill="#451C49"/>
<path d="M125.568 245.511H103.593L116.464 232.969C117.406 232.028 117.406 230.46 116.464 229.52C115.522 228.579 113.953 228.579 113.011 229.52L100.14 242.062V220.427C100.14 219.172 99.1985 217.918 97.6289 217.918C96.3732 217.918 95.1175 218.859 95.1175 220.427V243.002L82.2468 230.46C81.3051 229.52 79.7355 229.52 78.7937 230.46C77.852 231.401 77.852 232.969 78.7937 233.909L90.7226 245.824H69.6901C68.4344 245.824 67.1787 246.765 67.1787 248.333C67.1787 249.587 68.1205 250.841 69.6901 250.841H91.3505L78.7937 263.07C77.852 264.01 77.852 265.578 78.7937 266.519C79.1076 267.146 79.7355 267.146 80.3633 267.146C80.9912 267.146 81.619 266.832 81.9329 266.519L94.8036 253.977V275.925C94.8036 277.179 95.7453 278.434 97.3149 278.434C98.5706 278.434 99.8263 277.493 99.8263 275.925V254.604L112.383 266.832C112.697 267.146 113.325 267.459 113.953 267.459C114.58 267.459 115.208 267.146 115.522 266.832C116.464 265.892 116.464 264.324 115.522 263.383L102.338 250.528H125.568C126.823 250.528 128.079 249.587 128.079 248.019C127.765 246.765 126.823 245.511 125.568 245.511Z" fill="white"/>
<path d="M409.978 69.6084H388.004L400.875 57.0663C401.816 56.1257 401.816 54.5579 400.875 53.6173C399.933 52.6766 398.363 52.6766 397.422 53.6173L384.551 66.1593V44.5243C384.551 43.2701 383.609 42.0159 382.04 42.0159C380.784 42.0159 379.528 42.9565 379.528 44.5243V67.1L366.658 54.5579C365.716 53.6173 364.146 53.6173 363.204 54.5579C362.263 55.4986 362.263 57.0663 363.204 58.007L375.133 69.9219H354.729C353.473 69.9219 352.217 70.8626 352.217 72.4304C352.217 73.6846 353.159 74.9388 354.729 74.9388H376.389L363.832 87.1673C362.891 88.1079 362.891 89.6757 363.832 90.6163C364.46 91.2434 364.774 91.2434 365.402 91.2434C366.03 91.2434 366.658 90.9299 366.971 90.6163L379.842 78.0743V100.023C379.842 101.277 380.784 102.531 382.354 102.531C383.609 102.531 384.865 101.591 384.865 100.023V78.3878L397.422 90.6163C397.736 90.9299 398.363 91.2434 398.991 91.2434C399.619 91.2434 400.247 90.9299 400.561 90.6163C401.503 89.6757 401.503 88.1079 400.561 87.1673L387.376 74.3117H409.664C410.92 74.3117 412.176 73.371 412.176 71.8033C412.176 70.549 411.234 69.6084 409.978 69.6084Z" fill="white"/>
<path d="M576.67 245.511H554.695L567.566 232.969C568.508 232.028 568.508 230.46 567.566 229.52C566.624 228.579 565.055 228.579 564.113 229.52L551.242 242.062V220.427C551.242 219.172 550.3 217.918 548.731 217.918C547.475 217.918 546.22 218.859 546.22 220.427V243.002L533.349 230.46C532.407 229.52 530.838 229.52 529.896 230.46C528.954 231.401 528.954 232.969 529.896 233.909L541.825 245.824H520.792C519.536 245.824 518.281 246.765 518.281 248.333C518.281 249.587 519.222 250.841 520.792 250.841H542.453L529.896 263.07C528.954 264.01 528.954 265.578 529.896 266.519C530.21 267.146 530.838 267.146 531.465 267.146C532.093 267.146 532.721 266.832 533.035 266.519L545.906 253.977V275.925C545.906 277.179 546.847 278.434 548.417 278.434C549.673 278.434 550.928 277.493 550.928 275.925V254.604L563.485 266.832C563.799 267.146 564.427 267.459 565.055 267.459C565.683 267.459 566.31 267.146 566.624 266.832C567.566 265.892 567.566 264.324 566.624 263.383L553.44 250.528H575.728C576.984 250.528 578.239 249.587 578.239 248.019C579.181 246.765 578.239 245.511 576.67 245.511Z" fill="white"/>
<path d="M164.808 102.218C164.808 102.218 148.484 91.2434 144.089 102.531C139.066 113.819 182.073 127.302 182.073 127.302C182.073 127.302 189.294 85.2859 177.365 81.8369C163.552 78.0743 164.808 102.218 164.808 102.218Z" fill="#FF6666"/>
<path d="M479.669 167.75C479.669 167.75 485.633 149.25 473.39 147.996C461.147 146.742 460.833 191.58 460.833 191.58C460.833 191.58 503.213 186.563 502.899 174.021C502.585 159.911 479.669 167.75 479.669 167.75Z" fill="#FF6666"/>
<path d="M451.416 592.926C451.416 592.926 439.487 577.562 431.325 586.968C423.477 596.375 460.205 622.086 460.205 622.086C460.205 622.086 479.982 584.146 469.309 577.248C457.694 569.723 451.416 592.926 451.416 592.926Z" fill="#FF6666"/>
<path d="M66.865 391.312C66.865 391.312 62.4701 372.185 51.4829 377.202C40.1818 382.219 62.4701 421.413 62.4701 421.413C62.4701 421.413 96.6873 395.702 90.095 385.041C82.5609 373.126 66.865 391.312 66.865 391.312Z" fill="#FF6666"/>
</g>
<defs>
<linearGradient id="paint0_linear_4_234" x1="107" y1="79" x2="636" y2="335" gradientUnits="userSpaceOnUse">
<stop stop-color="#3FE9C0"/>
<stop offset="1" stop-color="#FF87B2"/>
</linearGradient>
<linearGradient id="paint1_linear_4_234" x1="147.852" y1="55.1347" x2="619.466" y2="418.926" gradientUnits="userSpaceOnUse">
<stop stop-color="#3FE9C0"/>
<stop offset="1" stop-color="#FF649C"/>
</linearGradient>
<clipPath id="clip0_4_234">
<rect width="636" height="671" fill="white"/>
</clipPath>
</defs>
</svg>
