<svg width="582" height="671" viewBox="0 0 582 671" fill="none" xmlns="http://www.w3.org/2000/svg">
<g clip-path="url(#clip0_4_351)">
<path d="M16.0649 671C7.04601 671 0 663.667 0 654.923V353.128C0 241.436 63.9777 141.308 164.313 94.4872C163.467 84.0513 165.158 74.1795 169.386 65.7179C174.741 54.7179 184.324 46.5385 195.315 43.4359C197.57 42.8718 199.825 42.3077 201.798 42.0256C202.361 42.0256 202.643 41.7436 203.207 41.7436V41.4615C209.689 18.8974 231.109 1.97436 255.347 0.282051C257.038 0 258.447 0 260.139 0C280.431 0 300.442 9.8718 313.97 26.2308C322.425 36.6667 328.062 49.359 330.317 63.1795C342.718 64.3077 354.273 66.5641 365.265 69.6667C366.11 69.6667 366.674 69.9487 367.52 70.2308C377.948 73.3333 388.376 76.718 398.522 80.6667C402.75 82.359 407.259 84.0513 411.487 86.8718C419.096 91.6667 425.579 98.4359 429.806 106.615C450.662 119.026 470.109 133.974 487.302 151.179C548.461 212.385 571.008 269.641 571.008 353.128V424.769C572.981 426.18 574.954 427.872 576.363 429.846C581.154 435.769 583.127 443.667 581.436 451.282L571.008 499.513V655.205C571.008 664.231 563.68 671.282 554.943 671.282H16.0649V671Z" fill="url(#paint0_linear_4_351)"/>
<path d="M557.48 353.128V654.923H18.8833V353.128C18.8833 204.205 139.511 83.7692 288.041 83.7692C362.446 83.7692 429.806 113.949 478.565 162.744C527.323 211.256 557.48 278.667 557.48 353.128Z" fill="url(#paint1_linear_4_351)"/>
<path d="M537.187 633.205L46.2217 638.846C46.2217 638.846 59.1863 473.846 71.5873 411.795C83.4246 353.128 97.7984 305.179 132.747 272.744C167.977 240.308 248.019 245.385 248.019 245.385C248.019 245.385 314.815 256.949 346.663 263.154C378.229 269.359 429.806 282.333 457.99 309.974C507.876 358.487 537.187 633.205 537.187 633.205Z" fill="#256ADD"/>
<path d="M304.951 411.513C305.515 410.103 305.797 408.41 305.797 406.718C305.797 398.538 299.033 391.769 290.859 391.769C282.686 391.769 275.922 398.538 275.922 406.718C275.922 407 275.922 407 275.922 407.282C275.64 407.282 275.64 407.282 275.358 407.282C267.185 407.282 260.42 414.051 260.42 422.231C260.42 430.41 267.185 437.179 275.358 437.179C279.304 437.179 282.968 435.487 285.786 432.949C288.323 437.179 293.114 440 298.469 440C306.642 440 313.406 433.231 313.406 425.051C313.688 419.128 310.024 414.051 304.951 411.513Z" fill="#FFF387"/>
<path d="M303.26 350.59C303.26 350.59 321.861 412.641 332.007 473.846C342.436 535.051 348.636 634.051 348.636 634.051" stroke="white" stroke-width="0.4777" stroke-miterlimit="10" stroke-linecap="round" stroke-linejoin="round"/>
<path opacity="0.65" d="M259.293 633.205H209.689C203.207 605 197.852 576.513 194.751 547.744C194.188 541.82 193.624 535.615 193.06 529.41C192.215 517.282 192.497 504.872 194.188 493.026C196.724 477.513 202.361 462 211.944 449.59C213.353 447.615 215.044 445.641 217.017 443.949C217.017 444.513 217.299 445.359 217.299 445.923C221.244 470.744 227.163 494.718 233.645 518.41C244.355 556.487 255.629 593.718 259.293 633.205Z" fill="#451C49"/>
<path d="M311.151 446.487C314.252 449.59 287.759 478.077 281.276 484.846C274.794 491.333 241.819 515.872 236.182 517.846C235.618 518.128 234.773 518.41 233.927 518.692C226.317 520.949 205.461 526.59 193.06 529.974C192.215 517.846 192.497 505.436 194.469 493.59C197.006 478.077 202.643 462.564 212.225 450.154L215.326 447.615C215.326 447.615 216.171 447.051 217.58 446.487C223.781 443.103 241.537 433.513 250.837 428.718C262.393 423.077 293.959 405.872 296.214 409.256C298.468 412.641 290.295 419.692 289.168 420.256C290.295 419.692 300.723 414.333 302.414 418C304.669 422.513 266.621 456.923 264.366 459.179C266.902 457.205 306.078 426.744 309.178 430.41C313.406 435.487 279.585 469.615 277.612 471.59C279.867 469.897 308.897 444.231 311.151 446.487Z" fill="#FF8994"/>
<path d="M248.865 247.923L304.669 356.795L328.626 294.18L248.865 247.923Z" fill="#FFEAE8"/>
<path d="M347.227 225.359L343.563 238.897L330.317 288.538L327.217 299.821C327.217 299.821 317.07 302.641 287.195 291.923C257.602 281.205 248.02 245.385 248.02 245.385L262.675 179.667L347.227 225.359Z" fill="#FF8994"/>
<path opacity="0.57" d="M343.563 238.897L330.317 288.538C322.989 290.513 314.815 288.538 308.051 285.154C297.905 279.795 289.732 270.487 284.377 260.333C279.867 251.59 271.694 234.949 279.022 225.923C286.35 216.615 302.696 213.795 313.688 216.333C326.089 219.154 336.517 227.897 342.999 238.615C343.281 238.333 343.281 238.615 343.563 238.897Z" fill="#451C49"/>
<path d="M211.38 134.82C195.879 127.205 184.887 111.128 183.196 93.9231C182.351 86.5897 183.196 79.2564 186.578 72.7692C189.678 66.282 195.597 60.9231 202.361 58.9487C207.998 57.2564 215.326 57.5385 218.708 52.7436C220.117 50.7692 220.681 48.2308 221.245 45.9743C226.036 29.3333 242.383 17.4872 259.293 16.359C276.203 14.9487 293.396 23.4102 304.106 36.6667C319.889 55.8461 322.425 85.1795 309.742 106.897C294.523 133.128 266.057 138.205 238.155 139.051C229.136 139.333 220.117 139.051 211.38 134.82Z" fill="#FF6666"/>
<path d="M355.119 87.718C365.547 125.513 384.994 159.641 394.858 197.718C402.468 184.179 410.359 170.923 416.278 156.538C420.506 146.103 423.888 134.538 421.633 123.256C419.66 113.949 414.023 105.769 405.85 100.692C402.468 98.718 399.086 97.3077 395.422 95.8974C385.557 92.2308 375.693 88.8462 365.547 85.7436C362.165 86.5897 358.501 87.1538 355.119 87.718Z" fill="#FF6666"/>
<path d="M266.902 166.692C261.266 164.436 254.783 163.308 248.865 165C241.819 166.974 236.182 172.897 233.927 179.949C231.672 187 232.236 194.615 234.773 201.385C236.182 205.333 238.437 209 241.255 212.103C249.992 221.128 265.775 221.974 275.639 214.077C292.832 199.974 286.068 174.026 266.902 166.692Z" fill="#FF8994"/>
<path d="M407.54 159.359C407.54 114.795 369.21 79.2564 323.834 84.0513C288.886 87.7179 260.702 115.923 257.038 150.897C255.628 163.872 257.601 176.282 262.111 187.282L268.593 229.308C271.13 245.949 283.531 259.487 300.159 263.436C306.36 264.846 312.56 266.538 318.761 267.949C330.88 270.769 346.381 277.256 358.782 273.026C377.102 266.538 381.611 243.128 387.53 227.051C392.321 214.641 396.83 201.949 401.622 189.256C405.286 179.949 407.54 169.795 407.54 159.359Z" fill="#FF8994"/>
<path d="M343.845 192.923C343.845 196.59 341.026 199.41 337.362 199.41C333.698 199.41 330.88 196.59 330.88 192.923C330.88 189.256 333.698 186.436 337.362 186.436C341.026 186.436 343.845 189.256 343.845 192.923Z" fill="#451C49"/>
<path d="M389.503 203.359C389.503 207.026 386.684 209.846 383.302 209.846C379.638 209.846 376.82 207.026 376.82 203.641C376.82 199.974 379.638 197.154 383.02 197.154C386.402 197.154 389.221 199.974 389.503 203.359Z" fill="#451C49"/>
<path d="M370.619 192.359C369.492 200.821 367.237 209 364.137 216.897C363.292 219.154 361.882 221.692 359.628 221.974C357.937 222.256 356.527 221.128 355.118 220.282" stroke="#451C49" stroke-width="0.7166" stroke-miterlimit="10" stroke-linecap="round" stroke-linejoin="round"/>
<path d="M333.98 173.744C332.007 174.59 330.316 176.564 330.598 178.538C330.88 179.667 331.444 180.513 332.571 181.077C333.417 181.641 334.544 181.923 335.671 182.205C338.208 182.769 341.026 183.051 343.845 183.051C346.099 183.051 348.918 182.769 350.045 180.513C351.736 177.128 347.79 173.744 344.972 172.897C341.872 172.051 337.081 172.333 333.98 173.744Z" fill="#FF6666"/>
<path d="M396.831 188.128C398.24 189.538 399.085 192.077 397.958 193.769C397.394 194.615 396.267 195.18 395.14 195.462C394.012 195.744 392.885 195.462 391.758 195.179C388.939 194.615 386.403 193.769 383.866 192.923C381.611 192.077 379.357 190.667 379.075 188.128C378.793 184.462 383.866 182.769 386.684 183.051C390.348 183.615 394.576 185.872 396.831 188.128Z" fill="#FF6666"/>
<path d="M343.845 222.256C344.972 225.641 347.509 228.179 350.609 230.154C353.709 231.846 357.373 232.41 360.755 231.846" stroke="#451C49" stroke-width="0.7166" stroke-miterlimit="10" stroke-linecap="round" stroke-linejoin="round"/>
<path d="M256.474 165.564C279.021 165.564 274.512 181.641 275.639 190.385C279.303 185.308 290.013 184.179 296.214 183.051C319.325 179.385 328.625 171.769 345.254 155.692C363.292 138.205 370.056 110.846 366.11 86.0256C340.744 77.5641 312.842 77.282 286.067 80.1026C278.74 80.9487 271.412 82.0769 264.648 84.8974C249.992 91.3846 240.973 106.615 237.309 122.128C233.927 137.923 235.618 157.667 236.745 173.744C236.745 173.744 246.892 165.564 256.474 165.564Z" fill="#FF6666"/>
<path d="M376.82 139.615C377.947 142.154 379.92 144.974 382.457 144.974C385.839 137.923 384.711 129.462 383.302 121.564C386.684 129.744 390.912 137.641 396.267 144.692C398.522 147.513 401.904 150.615 405.286 149.205C406.695 148.641 407.541 147.513 408.386 146.103C410.641 141.59 409.795 135.949 408.104 131.154C403.877 116.769 395.14 103.231 382.175 95.0513C377.666 92.2308 366.392 85.4615 361.601 90.2564C357.655 94.2051 363.01 104.923 364.419 109.154C367.801 119.59 372.029 129.744 376.82 139.615Z" fill="#FF6666"/>
<path d="M239.846 173.744C243.228 171.487 247.174 169.513 251.119 170.359C253.938 170.923 256.474 173.179 257.883 175.718C259.293 178.256 260.138 181.359 260.702 184.18C262.111 193.769 260.42 203.923 255.629 212.667" stroke="#451C49" stroke-width="0.7129" stroke-miterlimit="10" stroke-linecap="round" stroke-linejoin="round"/>
<path d="M252.529 209.846C252.529 211.821 250.837 213.513 248.865 213.513C246.892 213.513 245.201 211.821 245.201 209.846C245.201 207.872 246.892 206.179 248.865 206.179C250.837 206.462 252.529 207.872 252.529 209.846Z" fill="#FFEAE8"/>
<path d="M557.48 564.385H18.8833V654.923H557.48V564.385Z" fill="#451C49"/>
<path d="M245.483 596.256L302.696 442.538C304.105 438.872 307.487 436.333 311.433 436.333H559.171C565.089 436.333 569.599 441.974 568.19 447.615L534.933 599.641C534.087 603.872 530.141 606.974 525.914 606.974C486.738 607.256 305.796 607.82 254.22 608.949C247.737 608.949 243.228 602.462 245.483 596.256Z" fill="#4FDEFF"/>
<path d="M255.911 570.59L273.948 571.154L303.26 485.692L290.013 478.077" stroke="#451C49" stroke-width="0.808" stroke-miterlimit="10" stroke-linecap="round" stroke-linejoin="round"/>
<path d="M550.152 462C549.87 467.359 545.36 471.308 540.569 471.026C535.496 470.744 531.832 466.231 532.114 460.872C532.396 455.513 536.905 451.564 541.696 451.846C546.77 452.128 550.433 456.641 550.152 462Z" stroke="#451C49" stroke-width="0.7242" stroke-miterlimit="10" stroke-linecap="round" stroke-linejoin="round"/>
<path d="M527.323 524.897C524.222 524.333 522.25 521.231 522.813 518.128L529.014 486.821C529.577 483.718 532.678 481.744 535.778 482.308C538.878 482.872 540.851 485.974 540.287 489.077L534.087 520.385C533.241 523.487 530.141 525.744 527.323 524.897Z" stroke="#451C49" stroke-width="0.7455" stroke-miterlimit="10" stroke-linecap="round" stroke-linejoin="round"/>
<path d="M299.878 617.974L314.815 574.821C316.225 570.308 320.452 567.487 325.244 567.205L492.093 563.538C499.421 563.256 505.058 570.308 503.085 577.641L494.066 611.769L525.914 628.974L322.707 639.128L299.878 617.974Z" fill="#FF6666"/>
<path opacity="0.51" d="M299.878 617.974L314.815 574.821C316.225 570.308 320.452 567.487 325.244 567.205L492.093 563.538C499.421 563.256 505.058 570.308 503.085 577.641L494.066 611.769L525.914 628.974L322.707 639.128L299.878 617.974Z" fill="#451C49"/>
<path d="M299.878 617.974L494.066 611.769" stroke="#451C49" stroke-width="0.808" stroke-miterlimit="10" stroke-linecap="round" stroke-linejoin="round"/>
<path d="M35.794 408.128C34.6667 402.487 36.3577 396.282 40.3035 392.615C43.9674 388.667 49.6042 387.256 54.6773 388.949C53.8318 383.026 53.8318 377.103 56.3684 371.744C58.6231 366.385 63.6962 362.436 68.7693 362.436C72.4333 362.436 75.8153 364.692 78.9156 367.231C79.7611 360.179 86.2434 353.128 92.7258 352.846C99.2081 352.564 105.69 357.641 107.663 364.41C109.636 355.949 116.118 348.333 123.446 344.949C125.983 343.821 128.519 343.256 131.056 343.538C136.129 344.103 140.357 348.051 142.893 352.846C145.43 357.641 146.557 363.282 147.685 368.923C149.657 365.821 151.349 362.718 154.731 361.026C157.831 359.333 161.777 359.051 164.877 360.179C167.977 361.308 170.514 364.128 172.205 367.231C173.896 370.333 174.741 374 175.305 377.667C178.123 374.564 181.787 372.59 185.733 371.462C188.551 370.615 191.652 370.333 194.188 371.744C195.597 372.59 197.007 373.718 198.134 375.128C202.08 379.923 204.053 386.692 203.771 393.462C207.153 390.923 211.099 390.359 215.044 390.359C218.99 390.359 223.218 392.333 225.473 396C228.291 400.513 228.291 406.154 227.727 411.513L35.794 408.128Z" fill="#FFF387"/>
<path d="M230.545 405.872L182.069 621.923H169.386H159.522L144.02 621.641L117.527 621.359H115.273L99.7715 621.077L80.6064 620.795H67.0781L32.1299 410.949L39.1759 404.461C43.4035 400.513 49.8858 399.667 54.9589 402.769L59.7502 405.59L60.5957 406.154L64.8233 403.897C71.0238 400.231 78.6335 400.231 84.834 403.897L87.6524 405.59L89.0616 406.436L93.2892 404.179C99.4897 400.513 107.099 400.513 113.3 404.179L117.527 406.436L118.937 405.59L121.473 404.179C127.674 400.513 135.283 400.513 141.484 404.179L145.148 406.154L145.711 406.436L149.939 404.179C156.14 400.513 163.749 400.513 169.95 404.179L173.896 406.436L174.177 406.718L178.405 404.461C184.605 400.795 192.215 400.795 198.416 404.461L202.361 406.718L206.589 404.461C212.789 401.077 220.399 401.077 226.6 404.461L230.545 405.872Z" fill="#FFEAE8"/>
<path d="M230.546 405.872L182.069 621.923H169.386L202.08 405.872L206.307 403.615C212.508 400.231 220.117 400.231 226.318 403.615L230.546 405.872Z" fill="#FF6666"/>
<path d="M173.614 405.872L159.522 621.923L144.021 621.641L145.148 405.59L145.712 405.872L149.939 403.615C156.14 399.949 163.749 399.949 169.95 403.615L173.614 405.872Z" fill="#FF6666"/>
<path d="M118.655 405.308L115.273 621.641L99.7715 621.359L87.6523 405.308L89.0615 406.154L93.2891 403.897C99.4896 400.231 107.099 400.231 113.3 403.897L117.527 406.154L118.655 405.308Z" fill="#FF6666"/>
<path d="M80.6064 621.077H67.0781L32.1299 411.231L39.1759 404.744C43.4035 400.795 49.8858 399.949 54.9589 403.051L59.7502 405.872L80.6064 621.077Z" fill="#FF6666"/>
<path opacity="0.27" d="M118.655 405.026L117.527 621.359L67.0781 620.795L32.1299 410.949L39.1759 404.461C43.4035 400.513 49.8858 399.667 54.9589 402.769L60.5957 405.872L64.8233 403.615C71.0238 399.949 78.6335 399.949 84.834 403.615L89.0616 405.872L93.2892 403.615C99.4897 399.949 107.099 399.949 113.3 403.615L117.527 405.872L118.655 405.026Z" fill="#451C49"/>
<path d="M164.595 523.769C183.896 523.769 199.543 508.111 199.543 488.795C199.543 469.479 183.896 453.82 164.595 453.82C145.293 453.82 129.646 469.479 129.646 488.795C129.646 508.111 145.293 523.769 164.595 523.769Z" fill="#451C49"/>
<path d="M164.595 519.256C181.406 519.256 195.034 505.618 195.034 488.795C195.034 471.971 181.406 458.333 164.595 458.333C147.784 458.333 134.156 471.971 134.156 488.795C134.156 505.618 147.784 519.256 164.595 519.256Z" fill="#FFEAE8"/>
<path d="M474.901 190.667H455.172L466.727 179.385C467.573 178.538 467.573 177.128 466.727 176.282C465.882 175.436 464.473 175.436 463.627 176.282L452.072 187.564V168.103C452.072 166.974 451.226 165.846 449.817 165.846C448.69 165.846 447.562 166.692 447.562 168.103V188.41L436.007 177.128C435.161 176.282 433.752 176.282 432.907 177.128C432.061 177.974 432.061 179.385 432.907 180.231L443.617 190.949H424.733C423.606 190.949 422.479 191.795 422.479 193.205C422.479 194.333 423.324 195.462 424.733 195.462H444.18L432.907 206.462C432.061 207.308 432.061 208.718 432.907 209.564C433.188 210.128 433.752 210.128 434.316 210.128C434.88 210.128 435.443 209.846 435.725 209.564L447.28 198.282V218.026C447.28 219.154 448.126 220.282 449.535 220.282C450.663 220.282 451.79 219.436 451.79 218.026V198.846L463.064 209.846C463.345 210.128 463.909 210.41 464.473 210.41C465.036 210.41 465.6 210.128 465.882 209.846C466.727 209 466.727 207.59 465.882 206.744L454.045 195.179H474.055C475.183 195.179 476.31 194.333 476.31 192.923C477.156 191.795 476.028 190.667 474.901 190.667Z" fill="white"/>
<path d="M530.705 377.949H510.976L522.532 366.667C523.377 365.821 523.377 364.41 522.532 363.564C521.686 362.718 520.277 362.718 519.431 363.564L507.876 374.846V355.385C507.876 354.256 507.03 353.128 505.621 353.128C504.494 353.128 503.367 353.974 503.367 355.385V375.692L491.811 364.41C490.966 363.564 489.556 363.564 488.711 364.41C487.865 365.256 487.865 366.667 488.711 367.513L499.421 378.231H480.537C479.41 378.231 478.283 379.077 478.283 380.487C478.283 381.615 479.128 382.744 480.537 382.744H499.984L488.711 393.744C487.865 394.59 487.865 396 488.711 396.846C488.993 397.41 489.556 397.41 490.12 397.41C490.684 397.41 491.247 397.128 491.529 396.846L503.085 385.564V405.308C503.085 406.436 503.93 407.564 505.339 407.564C506.467 407.564 507.594 406.718 507.594 405.308V386.128L518.868 397.128C519.15 397.41 519.713 397.692 520.277 397.692C520.841 397.692 521.404 397.41 521.686 397.128C522.532 396.282 522.532 394.872 521.686 394.026L509.849 382.462H529.859C530.987 382.462 532.114 381.615 532.114 380.205C532.96 378.795 532.114 377.949 530.705 377.949Z" fill="white"/>
<path d="M188.551 251.308H168.822L180.378 240.026C181.223 239.179 181.223 237.769 180.378 236.923C179.532 236.077 178.123 236.077 177.278 236.923L165.722 248.205V228.744C165.722 227.615 164.877 226.487 163.467 226.487C162.34 226.487 161.213 227.333 161.213 228.744V249.051L149.657 237.769C148.812 236.923 147.403 236.923 146.557 237.769C145.711 238.615 145.711 240.026 146.557 240.872L157.267 251.59H138.384C137.256 251.59 136.129 252.436 136.129 253.846C136.129 254.974 136.974 256.103 138.384 256.103H157.831L146.557 267.103C145.711 267.949 145.711 269.359 146.557 270.205C146.839 270.769 147.403 270.769 147.966 270.769C148.53 270.769 149.094 270.487 149.375 270.205L160.931 258.923V278.667C160.931 279.795 161.776 280.923 163.186 280.923C164.313 280.923 165.44 280.077 165.44 278.667V259.487L176.714 270.487C176.996 270.769 177.559 271.051 178.123 271.051C178.687 271.051 179.25 270.769 179.532 270.487C180.378 269.641 180.378 268.231 179.532 267.385L167.695 255.82H187.706C188.833 255.82 189.96 254.974 189.96 253.564C190.806 252.436 189.96 251.308 188.551 251.308Z" fill="white"/>
<path d="M484.765 289.949C484.765 289.949 488.429 272.744 477.437 272.744C466.446 272.744 470.11 313.077 470.11 313.077C470.11 313.077 507.594 304.615 506.185 293.333C504.494 280.359 484.765 289.949 484.765 289.949Z" fill="#FF6666"/>
<path d="M156.421 158.231C156.421 158.231 147.684 143 139.511 150.051C131.337 157.385 160.649 185.026 160.649 185.026C160.649 185.026 183.196 154 174.741 146.385C164.876 138.205 156.421 158.231 156.421 158.231Z" fill="#FF6666"/>
<path d="M69.6145 285.154C69.6145 285.154 60.8775 269.923 52.7041 276.974C44.5308 284.308 73.8421 311.949 73.8421 311.949C73.8421 311.949 96.3894 280.923 87.9341 273.308C78.3516 265.128 69.6145 285.154 69.6145 285.154Z" fill="#FF6666"/>
</g>
<defs>
<linearGradient id="paint0_linear_4_351" x1="286" y1="108" x2="291" y2="465" gradientUnits="userSpaceOnUse">
<stop stop-color="#3FE9C0"/>
<stop offset="1" stop-color="#FF87B2"/>
</linearGradient>
<linearGradient id="paint1_linear_4_351" x1="288.182" y1="83.7692" x2="288.143" y2="460.955" gradientUnits="userSpaceOnUse">
<stop stop-color="#3FE9C0"/>
<stop offset="1" stop-color="#FF87B2"/>
</linearGradient>
<clipPath id="clip0_4_351">
<rect width="582" height="671" fill="white"/>
</clipPath>
</defs>
</svg>
