<svg width="91" height="91" viewBox="0 0 91 91" fill="none" xmlns="http://www.w3.org/2000/svg">
<path d="M40.73 78.77V80.83H40.63V80.91H9.57999L10.08 78.44C10.17 78 10.27 77.57 10.36 77.16C10.45 76.77 10.56 76.37 10.67 75.97L10.73 75.75L10.79 75.54C10.88 75.23 10.97 74.94 11.06 74.64V74.6C11.14 74.36 11.22 74.12 11.31 73.87C11.4 73.6 11.5 73.33 11.6 73.06C11.72 72.72 11.86 72.37 12 72.03C12.12 71.73 12.24 71.45 12.38 71.14C12.43 71.02 12.48 70.89 12.55 70.77C12.68 70.48 12.8 70.22 12.92 69.97C12.97 69.86 13.02 69.75 13.08 69.65C13.21 69.39 13.35 69.12 13.49 68.86C13.54 68.76 13.6 68.64 13.68 68.51C13.68 68.51 13.68 68.5 13.68 68.49V68.46L13.71 68.42C13.89 68.08 14.06 67.78 14.23 67.5C14.39 67.23 14.56 66.94 14.75 66.65L14.82 66.55C14.87 66.47 14.93 66.38 14.98 66.3L15.05 66.19C15.23 65.9 15.44 65.59 15.64 65.3C15.87 64.97 16.11 64.63 16.38 64.27C16.56 64.02 16.75 63.77 17 63.45L17.02 63.43L17.04 63.41L17.09 63.35C17.16 63.25 17.25 63.15 17.32 63.06C17.52 62.81 17.73 62.55 17.96 62.29C18.01 62.22 18.06 62.18 18.09 62.14C18.32 61.87 18.54 61.62 18.79 61.36C18.86 61.28 18.93 61.2 19.01 61.13C19.25 60.87 19.51 60.6 19.85 60.26C22.42 57.69 25.31 55.55 28.47 53.89H13.03C8.99 57.98 5.80998 62.72 3.56998 68C1.20998 73.56 0.01 79.47 0 85.57V89.55V90.23H49.81V49.77V42.36V12.06V10H49.93L51.99 9.97998H80.98L80.48 12.45C79.08 19.34 75.69 25.63 70.68 30.63C69.62 31.69 68.51 32.67 67.34 33.58H80.54C83.17 30.33 85.32 26.74 86.95 22.89C89.3 17.33 90.5 11.42 90.52 5.32996V0.659973H40.7V78.78L40.73 78.77Z" fill="url(#paint0_radial_0_44)"/>
<path d="M9.37003 40.44V9.51001L11.83 10C18.76 11.38 25.09 14.77 30.11 19.8C30.45 20.14 30.79 20.5 31.12 20.86V8.46997C28.39 6.49997 25.44 4.84998 22.34 3.53998C16.78 1.18998 10.87 0 4.76001 0H0.0300293V47.04H31.12V40.45H9.36002L9.37003 40.44Z" fill="url(#paint1_radial_0_44)"/>
<path d="M80.55 47.02V80.69L78.09 80.2C71.17 78.83 64.85 75.45 59.8 70.41C59.69 70.3 59.59 70.2 59.48 70.09V82.24C62 83.98 64.71 85.47 67.56 86.67C73.13 89.03 79.04 90.22 85.14 90.22H89.87V40.43H59.49V47.02H80.55Z" fill="url(#paint2_radial_0_44)"/>
<defs>
<radialGradient id="paint0_radial_0_44" cx="0" cy="0" r="1" gradientUnits="userSpaceOnUse" gradientTransform="translate(45.26 45.445) rotate(134.228) scale(46.2496 46.4086)">
<stop stop-color="#E62129"/>
<stop offset="1" stop-color="#751A1B"/>
</radialGradient>
<radialGradient id="paint1_radial_0_44" cx="0" cy="0" r="1" gradientUnits="userSpaceOnUse" gradientTransform="translate(15.575 23.52) rotate(122.481) scale(20.6323 18.7646)">
<stop stop-color="#E62129"/>
<stop offset="1" stop-color="#751A1B"/>
</radialGradient>
<radialGradient id="paint2_radial_0_44" cx="0" cy="0" r="1" gradientUnits="userSpaceOnUse" gradientTransform="translate(74.675 65.325) rotate(120.452) scale(21.3701 18.7442)">
<stop stop-color="#E62129"/>
<stop offset="1" stop-color="#751A1B"/>
</radialGradient>
</defs>
</svg>
