<svg width="272" height="91" viewBox="0 0 272 91" fill="none" xmlns="http://www.w3.org/2000/svg">
<path d="M40.73 78.77V80.83H40.63V80.91H9.57999L10.08 78.44C10.17 78 10.27 77.57 10.36 77.16C10.45 76.77 10.56 76.37 10.67 75.97L10.73 75.75L10.79 75.54C10.88 75.23 10.97 74.94 11.06 74.64V74.6C11.14 74.36 11.22 74.12 11.31 73.87C11.4 73.6 11.5 73.33 11.6 73.06C11.72 72.72 11.86 72.37 12 72.03C12.12 71.73 12.24 71.45 12.38 71.14C12.43 71.02 12.48 70.89 12.55 70.77C12.68 70.48 12.8 70.22 12.92 69.97C12.97 69.86 13.02 69.75 13.08 69.65C13.21 69.39 13.35 69.12 13.49 68.86C13.54 68.76 13.6 68.64 13.68 68.51C13.68 68.51 13.68 68.5 13.68 68.49V68.46L13.71 68.42C13.89 68.08 14.06 67.78 14.23 67.5C14.39 67.23 14.56 66.94 14.75 66.65L14.82 66.55C14.87 66.47 14.93 66.38 14.98 66.3L15.05 66.19C15.23 65.9 15.44 65.59 15.64 65.3C15.87 64.97 16.11 64.63 16.38 64.27C16.56 64.02 16.75 63.77 17 63.45L17.02 63.43L17.04 63.41L17.09 63.35C17.16 63.25 17.25 63.15 17.32 63.06C17.52 62.81 17.73 62.55 17.96 62.29C18.01 62.22 18.06 62.18 18.09 62.14C18.32 61.87 18.54 61.62 18.79 61.36C18.86 61.28 18.93 61.2 19.01 61.13C19.25 60.87 19.51 60.6 19.85 60.26C22.42 57.69 25.31 55.55 28.47 53.89H13.03C8.99 57.98 5.80998 62.72 3.56998 68C1.20998 73.56 0.01 79.47 0 85.57V89.55V90.23H49.81V49.77V42.36V12.06V10H49.93L51.99 9.97998H80.98L80.48 12.45C79.08 19.34 75.69 25.63 70.68 30.63C69.62 31.69 68.51 32.67 67.34 33.58H80.54C83.17 30.33 85.32 26.74 86.95 22.89C89.3 17.33 90.5 11.42 90.52 5.32996V0.659973H40.7V78.78L40.73 78.77Z" fill="url(#paint0_radial_121_11)"/>
<path d="M9.37003 40.44V9.51001L11.83 10C18.76 11.38 25.09 14.77 30.11 19.8C30.45 20.14 30.79 20.5 31.12 20.86V8.46997C28.39 6.49997 25.44 4.84998 22.34 3.53998C16.78 1.18998 10.87 0 4.76001 0H0.0300293V47.04H31.12V40.45H9.36002L9.37003 40.44Z" fill="url(#paint1_radial_121_11)"/>
<path d="M80.55 47.02V80.69L78.09 80.2C71.17 78.83 64.85 75.45 59.8 70.41C59.69 70.3 59.59 70.2 59.48 70.09V82.24C62 83.98 64.71 85.47 67.56 86.67C73.13 89.03 79.04 90.22 85.14 90.22H89.87V40.43H59.49V47.02H80.55Z" fill="url(#paint2_radial_121_11)"/>
<path d="M109.67 33.985L109.7 35.26V43H108.98V32.185H109.31L116.375 40.33C116.855 40.9 117.225 41.355 117.485 41.695C117.445 41.215 117.425 40.665 117.425 40.045V32.275H118.145V43.09H117.815L110.615 34.795C110.115 34.225 109.795 33.845 109.655 33.655L109.67 33.985ZM121.925 43V33.265H126.47V33.865H122.615V37.405H126.095V37.99H122.615V42.37H126.62V43H121.925ZM131.121 33.88H127.821V33.265H135.096V33.88H131.796V43H131.121V33.88ZM137.13 43V33.265H142.125V33.865H137.82V37.405H141.75V37.99H137.82V43H137.13ZM144.791 43V33.265H145.481V42.37H149.951V43H144.791ZM151.998 43V33.265H152.688V43H151.998ZM155.105 33.265H155.945L158.54 37.48L161.255 33.265H162.005L158.885 38.035L162.02 43H161.195L158.405 38.53L155.495 43H154.73L158.06 37.96L155.105 33.265ZM171.934 40.63L174.739 33.46H175.174L177.619 40.675L177.979 41.89C178.009 41.7 178.134 41.3 178.354 40.69L180.844 33.265H181.564L178.174 43.06H177.769C176.099 38.27 175.234 35.78 175.174 35.59C175.084 35.32 174.994 35.055 174.904 34.795C174.854 34.965 174.719 35.32 174.499 35.86L171.664 43.06H171.259L167.839 33.265H168.604L171.079 40.57C171.219 40.97 171.349 41.415 171.469 41.905C171.519 41.705 171.674 41.28 171.934 40.63ZM183.43 39.625L182.035 43H181.33L185.41 33.205H185.815L189.925 43H189.16L187.75 39.625H183.43ZM185.575 34.315C185.425 34.765 185.29 35.14 185.17 35.44L183.67 39.04H187.51L186.025 35.455C185.795 34.895 185.645 34.515 185.575 34.315ZM192.718 33.88H189.418V33.265H196.693V33.88H193.393V43H192.718V33.88ZM205.965 42.52C205.215 42.94 204.17 43.15 202.83 43.15C201.5 43.15 200.325 42.67 199.305 41.71C198.295 40.75 197.79 39.56 197.79 38.14C197.79 36.71 198.23 35.515 199.11 34.555C200 33.595 201.145 33.115 202.545 33.115C203.675 33.115 204.78 33.29 205.86 33.64L205.68 34.21C204.64 33.89 203.565 33.73 202.455 33.73C201.345 33.73 200.41 34.155 199.65 35.005C198.9 35.845 198.525 36.88 198.525 38.11C198.525 39.33 198.96 40.37 199.83 41.23C200.71 42.09 201.725 42.52 202.875 42.52C204.025 42.52 204.98 42.36 205.74 42.04L205.965 42.52ZM215.879 43V38.08H209.114V43H208.424V33.265H209.114V37.465H215.879V33.265H216.569V43H215.879ZM225.577 43V33.325C226.327 33.245 227.117 33.205 227.947 33.205C228.787 33.205 229.497 33.43 230.077 33.88C230.657 34.32 230.947 34.99 230.947 35.89C230.947 36.79 230.552 37.53 229.762 38.11C228.972 38.68 228.037 38.965 226.957 38.965C226.907 38.965 226.852 38.965 226.792 38.965V38.485C226.832 38.485 226.867 38.485 226.897 38.485C227.787 38.485 228.562 38.25 229.222 37.78C229.882 37.31 230.212 36.7 230.212 35.95C230.212 35.2 229.977 34.655 229.507 34.315C229.047 33.975 228.437 33.805 227.677 33.805C227.277 33.805 226.807 33.825 226.267 33.865V43H225.577ZM233.382 39.625L231.987 43H231.282L235.362 33.205H235.767L239.877 43H239.112L237.702 39.625H233.382ZM235.527 34.315C235.377 34.765 235.242 35.14 235.122 35.44L233.622 39.04H237.462L235.977 35.455C235.747 34.895 235.597 34.515 235.527 34.315ZM241.852 43V33.31C242.712 33.24 243.442 33.205 244.042 33.205C244.962 33.205 245.722 33.445 246.322 33.925C246.922 34.395 247.222 35.07 247.222 35.95C247.222 36.54 247.052 37.085 246.712 37.585C246.372 38.085 245.987 38.49 245.557 38.8C246.747 40.38 247.482 41.325 247.762 41.635C248.332 42.225 248.952 42.56 249.622 42.64L249.607 43.105C249.047 43.095 248.592 43.015 248.242 42.865C247.892 42.705 247.542 42.44 247.192 42.07C246.852 41.7 246.097 40.705 244.927 39.085C244.117 39.085 243.322 39.06 242.542 39.01V43H241.852ZM244.552 38.515C244.942 38.515 245.362 38.255 245.812 37.735C246.262 37.215 246.487 36.61 246.487 35.92C246.487 35.23 246.252 34.705 245.782 34.345C245.312 33.985 244.702 33.805 243.952 33.805C243.552 33.805 243.082 33.825 242.542 33.865V38.44C243.262 38.49 243.932 38.515 244.552 38.515ZM252.015 33.88H248.715V33.265H255.99V33.88H252.69V43H252.015V33.88ZM260.754 43H260.079V39.52L256.404 33.265H257.229L260.064 38.095C260.284 38.535 260.409 38.77 260.439 38.8C260.499 38.67 260.624 38.44 260.814 38.11L263.649 33.265H264.429L260.754 39.55V43Z" fill="white"/>
<path d="M111.2 56V49.51H114.23V49.91H111.66V52.27H113.98V52.66H111.66V55.58H114.33V56H111.2ZM116.171 56V49.47H116.391L120.651 54.37C120.804 54.5433 120.944 54.7167 121.071 54.89C121.204 55.0567 121.274 55.1433 121.281 55.15C121.267 54.99 121.261 54.6767 121.261 54.21V49.51H121.721V56.04H121.501L117.161 51.06L116.611 50.39C116.624 50.5233 116.631 50.8367 116.631 51.33V56H116.171ZM124.12 55.26V49.51H124.57V54.97C124.57 55.51 124.487 55.9867 124.32 56.4C124.153 56.8133 123.96 57.1333 123.74 57.36C123.52 57.5867 123.237 57.8233 122.89 58.07L122.68 57.77C123.64 57.07 124.12 56.2333 124.12 55.26ZM129.783 56.1C128.856 56.1 128.08 55.7767 127.453 55.13C126.826 54.4833 126.513 53.6933 126.513 52.76C126.513 51.82 126.826 51.0267 127.453 50.38C128.08 49.7333 128.856 49.41 129.783 49.41C130.71 49.41 131.486 49.7333 132.113 50.38C132.74 51.0267 133.053 51.82 133.053 52.76C133.053 53.6933 132.74 54.4833 132.113 55.13C131.486 55.7767 130.71 56.1 129.783 56.1ZM129.783 49.82C128.983 49.82 128.316 50.1033 127.783 50.67C127.256 51.2367 126.993 51.9333 126.993 52.76C126.993 53.58 127.256 54.2733 127.783 54.84C128.316 55.4 128.983 55.68 129.783 55.68C130.59 55.68 131.256 55.4 131.783 54.84C132.31 54.2733 132.573 53.58 132.573 52.76C132.573 51.9333 132.31 51.2367 131.783 50.67C131.256 50.1033 130.59 49.82 129.783 49.82ZM136.721 56H136.271V53.68L133.821 49.51H134.371L136.261 52.73C136.408 53.0233 136.491 53.18 136.511 53.2C136.551 53.1133 136.635 52.96 136.761 52.74L138.651 49.51H139.171L136.721 53.7V56ZM145.741 54.42L147.611 49.64H147.901L149.531 54.45L149.771 55.26C149.791 55.1333 149.874 54.8667 150.021 54.46L151.681 49.51H152.161L149.901 56.04H149.631C148.517 52.8467 147.941 51.1867 147.901 51.06C147.841 50.88 147.781 50.7033 147.721 50.53C147.687 50.6433 147.597 50.88 147.451 51.24L145.561 56.04H145.291L143.011 49.51H143.521L145.171 54.38C145.264 54.6467 145.351 54.9433 145.431 55.27C145.464 55.1367 145.567 54.8533 145.741 54.42ZM153.405 53.75L152.475 56H152.005L154.725 49.47H154.995L157.735 56H157.225L156.285 53.75H153.405ZM154.835 50.21C154.735 50.51 154.645 50.76 154.565 50.96L153.565 53.36H156.125L155.135 50.97C154.981 50.5967 154.881 50.3433 154.835 50.21ZM159.596 49.92H157.396V49.51H162.246V49.92H160.046V56H159.596V49.92ZM168.428 55.68C167.928 55.96 167.231 56.1 166.338 56.1C165.451 56.1 164.668 55.78 163.988 55.14C163.314 54.5 162.978 53.7067 162.978 52.76C162.978 51.8067 163.271 51.01 163.858 50.37C164.451 49.73 165.214 49.41 166.148 49.41C166.901 49.41 167.638 49.5267 168.358 49.76L168.238 50.14C167.544 49.9267 166.828 49.82 166.088 49.82C165.348 49.82 164.724 50.1033 164.218 50.67C163.718 51.23 163.468 51.92 163.468 52.74C163.468 53.5533 163.758 54.2467 164.338 54.82C164.924 55.3933 165.601 55.68 166.368 55.68C167.134 55.68 167.771 55.5733 168.278 55.36L168.428 55.68ZM175.037 56V52.72H170.527V56H170.067V49.51H170.527V52.31H175.037V49.51H175.497V56H175.037ZM177.899 56V49.51H178.359V56H177.899ZM180.761 56V49.47H180.981L185.241 54.37C185.394 54.5433 185.534 54.7167 185.661 54.89C185.794 55.0567 185.864 55.1433 185.871 55.15C185.857 54.99 185.851 54.6767 185.851 54.21V49.51H186.311V56.04H186.091L181.751 51.06L181.201 50.39C181.214 50.5233 181.221 50.8367 181.221 51.33V56H180.761ZM191.42 49.82C190.68 49.82 190.056 50.1033 189.55 50.67C189.05 51.23 188.8 51.92 188.8 52.74C188.8 53.56 189.083 54.2567 189.65 54.83C190.216 55.3967 190.883 55.68 191.65 55.68C192.423 55.68 193.023 55.59 193.45 55.41V52.74H193.91V55.62C193.39 55.94 192.653 56.1 191.7 56.1C190.746 56.1 189.943 55.7767 189.29 55.13C188.636 54.4833 188.31 53.69 188.31 52.75C188.31 51.8033 188.603 51.01 189.19 50.37C189.783 49.73 190.546 49.41 191.48 49.41C192.233 49.41 192.97 49.5267 193.69 49.76L193.57 50.14C192.876 49.9267 192.16 49.82 191.42 49.82ZM112.85 65.42L114.72 60.64H115.01L116.64 65.45L116.88 66.26C116.9 66.1333 116.983 65.8667 117.13 65.46L118.79 60.51H119.27L117.01 67.04H116.74C115.627 63.8467 115.05 62.1867 115.01 62.06C114.95 61.88 114.89 61.7033 114.83 61.53C114.797 61.6433 114.707 61.88 114.56 62.24L112.67 67.04H112.4L110.12 60.51H110.63L112.28 65.38C112.373 65.6467 112.46 65.9433 112.54 66.27C112.573 66.1367 112.677 65.8533 112.85 65.42ZM120.595 67V60.51H121.055V67H120.595ZM124.616 60.92H122.416V60.51H127.266V60.92H125.066V67H124.616V60.92ZM133.592 67V63.72H129.082V67H128.622V60.51H129.082V63.31H133.592V60.51H134.052V67H133.592ZM144.677 66.33C144.237 66.8433 143.567 67.1 142.667 67.1C141.767 67.1 141.097 66.8433 140.657 66.33C140.217 65.8167 139.997 65.1067 139.997 64.2V60.51H140.457V64.2C140.457 65.86 141.194 66.69 142.667 66.69C144.141 66.69 144.877 65.86 144.877 64.2V60.51H145.337V64.2C145.337 65.1067 145.117 65.8167 144.677 66.33ZM148.985 60.79C148.625 60.79 148.331 60.8767 148.105 61.05C147.878 61.2233 147.765 61.4667 147.765 61.78C147.765 62.14 147.915 62.4633 148.215 62.75C148.428 62.9567 148.701 63.1767 149.035 63.41C149.375 63.6367 149.608 63.8 149.735 63.9C149.861 64 150.015 64.1367 150.195 64.31C150.521 64.6367 150.685 65.0133 150.685 65.44C150.685 65.9933 150.498 66.4133 150.125 66.7C149.758 66.98 149.241 67.12 148.575 67.12C147.915 67.12 147.361 66.9467 146.915 66.6L147.155 66.25C147.608 66.5567 148.088 66.71 148.595 66.71C149.101 66.71 149.495 66.6033 149.775 66.39C150.061 66.1767 150.205 65.8767 150.205 65.49C150.205 65.1567 150.061 64.85 149.775 64.57C149.575 64.37 149.305 64.1533 148.965 63.92C148.631 63.6867 148.398 63.52 148.265 63.42C148.131 63.3133 147.975 63.1733 147.795 63C147.455 62.66 147.285 62.2667 147.285 61.82C147.285 61.3733 147.441 61.0233 147.755 60.77C148.075 60.5167 148.515 60.39 149.075 60.39C149.635 60.39 150.138 60.5 150.585 60.72L150.415 61.09C150.001 60.89 149.525 60.79 148.985 60.79Z" fill="#FF0003"/>
<defs>
<radialGradient id="paint0_radial_121_11" cx="0" cy="0" r="1" gradientUnits="userSpaceOnUse" gradientTransform="translate(45.26 45.445) rotate(134.228) scale(46.2496 46.4086)">
<stop stop-color="#E62129"/>
<stop offset="1" stop-color="#751A1B"/>
</radialGradient>
<radialGradient id="paint1_radial_121_11" cx="0" cy="0" r="1" gradientUnits="userSpaceOnUse" gradientTransform="translate(15.575 23.52) rotate(122.481) scale(20.6323 18.7646)">
<stop stop-color="#E62129"/>
<stop offset="1" stop-color="#751A1B"/>
</radialGradient>
<radialGradient id="paint2_radial_121_11" cx="0" cy="0" r="1" gradientUnits="userSpaceOnUse" gradientTransform="translate(74.675 65.325) rotate(120.452) scale(21.3701 18.7442)">
<stop stop-color="#E62129"/>
<stop offset="1" stop-color="#751A1B"/>
</radialGradient>
</defs>
</svg>
