<svg width="178" height="72" viewBox="0 0 178 72" fill="none" xmlns="http://www.w3.org/2000/svg">
<path d="M25.4888 25.8021C15.8204 16.395 22.4803 0 35.97 0C49.4596 0 56.1195 16.3951 46.4511 25.8021L35.97 36L25.4888 25.8021Z" fill="url(#paint0_linear_37_9)"/>
<path d="M25.5489 46.1979C15.8805 55.605 22.5404 72 36.03 72C49.5197 72 56.1796 55.6049 46.5112 46.1979L36.03 36L25.5489 46.1979Z" fill="url(#paint1_linear_37_9)"/>
<path d="M25.8021 46.5112C16.395 56.1796 0 49.5197 0 36.03C0 22.5404 16.3951 15.8805 25.8021 25.5489L36 36.03L25.8021 46.5112Z" fill="url(#paint2_linear_37_9)"/>
<path d="M46.1979 46.4511C55.605 56.1195 72 49.4596 72 35.97C72 22.4803 55.6049 15.8204 46.1979 25.4888L36 35.97L46.1979 46.4511Z" fill="url(#paint3_linear_37_9)"/>
<path d="M43.032 30.832L39.912 42H37.272L35.176 34.048L32.984 42L30.36 42.016L27.352 30.832H29.752L31.72 39.504L33.992 30.832H36.488L38.632 39.456L40.616 30.832H43.032ZM51.3426 39.872H46.8946L46.1586 42H43.8066L47.8226 30.816H50.4306L54.4466 42H52.0786L51.3426 39.872ZM50.7346 38.08L49.1186 33.408L47.5026 38.08H50.7346ZM63.5478 30.832V32.64H60.5718V42H58.3318V32.64H55.3558V30.832H63.5478ZM64.6381 36.4C64.6381 35.3013 64.8835 34.32 65.3741 33.456C65.8755 32.5813 66.5528 31.904 67.4061 31.424C68.2701 30.9333 69.2355 30.688 70.3021 30.688C71.5501 30.688 72.6435 31.008 73.5821 31.648C74.5208 32.288 75.1768 33.1733 75.5501 34.304H72.9741C72.7181 33.7707 72.3555 33.3707 71.8861 33.104C71.4275 32.8373 70.8941 32.704 70.2861 32.704C69.6355 32.704 69.0541 32.8587 68.5421 33.168C68.0408 33.4667 67.6461 33.8933 67.3581 34.448C67.0808 35.0027 66.9421 35.6533 66.9421 36.4C66.9421 37.136 67.0808 37.7867 67.3581 38.352C67.6461 38.9067 68.0408 39.3387 68.5421 39.648C69.0541 39.9467 69.6355 40.096 70.2861 40.096C70.8941 40.096 71.4275 39.9627 71.8861 39.696C72.3555 39.4187 72.7181 39.0133 72.9741 38.48H75.5501C75.1768 39.6213 74.5208 40.512 73.5821 41.152C72.6541 41.7813 71.5608 42.096 70.3021 42.096C69.2355 42.096 68.2701 41.856 67.4061 41.376C66.5528 40.8853 65.8755 40.208 65.3741 39.344C64.8835 38.48 64.6381 37.4987 64.6381 36.4ZM86.7274 30.832V42H84.4874V37.248H79.7034V42H77.4634V30.832H79.7034V35.424H84.4874V30.832H86.7274ZM97.9286 42.112C96.8833 42.112 95.9233 41.8667 95.0486 41.376C94.174 40.8853 93.4806 40.208 92.9686 39.344C92.4566 38.4693 92.2006 37.4827 92.2006 36.384C92.2006 35.296 92.4566 34.32 92.9686 33.456C93.4806 32.5813 94.174 31.8987 95.0486 31.408C95.9233 30.9173 96.8833 30.672 97.9286 30.672C98.9846 30.672 99.9446 30.9173 100.809 31.408C101.683 31.8987 102.371 32.5813 102.873 33.456C103.385 34.32 103.641 35.296 103.641 36.384C103.641 37.4827 103.385 38.4693 102.873 39.344C102.371 40.208 101.683 40.8853 100.809 41.376C99.934 41.8667 98.974 42.112 97.9286 42.112ZM97.9286 40.112C98.6006 40.112 99.1926 39.9627 99.7046 39.664C100.217 39.3547 100.617 38.9173 100.905 38.352C101.193 37.7867 101.337 37.1307 101.337 36.384C101.337 35.6373 101.193 34.9867 100.905 34.432C100.617 33.8667 100.217 33.4347 99.7046 33.136C99.1926 32.8373 98.6006 32.688 97.9286 32.688C97.2566 32.688 96.6593 32.8373 96.1366 33.136C95.6246 33.4347 95.2246 33.8667 94.9366 34.432C94.6486 34.9867 94.5046 35.6373 94.5046 36.384C94.5046 37.1307 94.6486 37.7867 94.9366 38.352C95.2246 38.9173 95.6246 39.3547 96.1366 39.664C96.6593 39.9627 97.2566 40.112 97.9286 40.112ZM112.907 30.832V32.64H109.931V42H107.691V32.64H104.715V30.832H112.907ZM122.142 30.832V32.64H119.166V42H116.926V32.64H113.95V30.832H122.142ZM135.732 34.288C135.732 34.8853 135.588 35.4453 135.3 35.968C135.023 36.4907 134.58 36.912 133.972 37.232C133.375 37.552 132.618 37.712 131.7 37.712H129.828V42H127.588V30.832H131.7C132.564 30.832 133.3 30.9813 133.908 31.28C134.516 31.5787 134.97 31.9893 135.268 32.512C135.578 33.0347 135.732 33.6267 135.732 34.288ZM131.604 35.904C132.223 35.904 132.682 35.7653 132.98 35.488C133.279 35.2 133.428 34.8 133.428 34.288C133.428 33.2 132.82 32.656 131.604 32.656H129.828V35.904H131.604ZM144.171 39.872H139.723L138.987 42H136.635L140.651 30.816H143.259L147.275 42H144.907L144.171 39.872ZM143.563 38.08L141.947 33.408L140.331 38.08H143.563ZM154.536 42L152.072 37.648H151.016V42H148.776V30.832H152.968C153.832 30.832 154.568 30.9867 155.176 31.296C155.784 31.5947 156.237 32.0053 156.536 32.528C156.845 33.04 157 33.616 157 34.256C157 34.992 156.787 35.6587 156.36 36.256C155.933 36.8427 155.299 37.248 154.456 37.472L157.128 42H154.536ZM151.016 35.968H152.888C153.496 35.968 153.949 35.824 154.248 35.536C154.547 35.2373 154.696 34.8267 154.696 34.304C154.696 33.792 154.547 33.3973 154.248 33.12C153.949 32.832 153.496 32.688 152.888 32.688H151.016V35.968ZM166.626 30.832V32.64H163.65V42H161.41V32.64H158.434V30.832H166.626ZM177.14 30.832L173.364 38.112V42H171.124V38.112L167.332 30.832H169.86L172.26 35.936L174.644 30.832H177.14Z" fill="#282828"/>
<defs>
<linearGradient id="paint0_linear_37_9" x1="30.47" y1="-1.56535e-07" x2="35.97" y2="36" gradientUnits="userSpaceOnUse">
<stop stop-color="#3FE9C0"/>
<stop offset="1" stop-color="#FF87B2"/>
</linearGradient>
<linearGradient id="paint1_linear_37_9" x1="30.53" y1="72" x2="36.03" y2="36" gradientUnits="userSpaceOnUse">
<stop stop-color="#3FE9C0"/>
<stop offset="1" stop-color="#FF87B2"/>
</linearGradient>
<linearGradient id="paint2_linear_37_9" x1="-1.56535e-07" y1="41.53" x2="36" y2="36.03" gradientUnits="userSpaceOnUse">
<stop stop-color="#3FE9C0"/>
<stop offset="1" stop-color="#FF87B2"/>
</linearGradient>
<linearGradient id="paint3_linear_37_9" x1="72" y1="41.47" x2="36" y2="35.97" gradientUnits="userSpaceOnUse">
<stop stop-color="#3FE9C0"/>
<stop offset="1" stop-color="#FF87B2"/>
</linearGradient>
</defs>
</svg>
